<svg xmlns="http://www.w3.org/2000/svg" xmlns:svg="http://www.w3.org/2000/svg" id="svg3128" width="710.1" height="624.644" version="1.1" viewBox="0 0 710.1 624.644" xml:space="preserve"><defs id="defs119"><clipPath id="clipPath121" clipPathUnits="userSpaceOnUse"><path id="path121" d="M 0,683.556 H 720.393 V 0 H 0 Z" transform="translate(-422.26871,-18.997898)"/></clipPath><clipPath id="clipPath123" clipPathUnits="userSpaceOnUse"><path id="path123" d="M 0,683.556 H 720.393 V 0 H 0 Z" transform="translate(-415.25041,-14.8056)"/></clipPath><clipPath id="clipPath125" clipPathUnits="userSpaceOnUse"><path id="path125" d="M 0,683.556 H 720.393 V 0 H 0 Z" transform="translate(-262.33801,-23.423903)"/></clipPath><clipPath id="clipPath127" clipPathUnits="userSpaceOnUse"><path id="path127" d="M 0,683.556 H 720.393 V 0 H 0 Z" transform="translate(-276.75361,-23.730301)"/></clipPath><clipPath id="clipPath129" clipPathUnits="userSpaceOnUse"><path id="path129" d="M 0,683.556 H 720.393 V 0 H 0 Z" transform="translate(-303.22041,-20.880601)"/></clipPath><clipPath id="clipPath131" clipPathUnits="userSpaceOnUse"><path id="path131" d="M 0,683.556 H 720.393 V 0 H 0 Z" transform="translate(-308.00361,-20.103398)"/></clipPath><clipPath id="clipPath133" clipPathUnits="userSpaceOnUse"><path id="path133" d="M 0,683.556 H 720.393 V 0 H 0 Z" transform="translate(-324.03941,-21.021803)"/></clipPath><clipPath id="clipPath135" clipPathUnits="userSpaceOnUse"><path id="path135" d="M 0,683.556 H 720.393 V 0 H 0 Z" transform="translate(-350.61111,-25.685003)"/></clipPath><clipPath id="clipPath137" clipPathUnits="userSpaceOnUse"><path id="path137" d="M 0,683.556 H 720.393 V 0 H 0 Z" transform="translate(-358.75971,-22.858898)"/></clipPath><clipPath id="clipPath139" clipPathUnits="userSpaceOnUse"><path id="path139" d="M 0,683.556 H 720.393 V 0 H 0 Z" transform="translate(-376.88051,-23.730301)"/></clipPath><clipPath id="clipPath141" clipPathUnits="userSpaceOnUse"><path id="path141" d="M 0,683.556 H 720.393 V 0 H 0 Z" transform="translate(-389.25391,-31.337401)"/></clipPath><clipPath id="clipPath6" clipPathUnits="userSpaceOnUse"><path id="path6" d="M 0,114.52 H 114.52 V 0 H 0 Z" transform="translate(-35.267201,-32.161503)"/></clipPath><clipPath id="clipPath4" clipPathUnits="userSpaceOnUse"><path id="path4" d="M 0,114.52 H 114.52 V 0 H 0 Z" transform="translate(-61.726601,-60.946602)"/></clipPath><clipPath id="clipPath2" clipPathUnits="userSpaceOnUse"><path id="path2" d="M 0,114.52 H 114.52 V 0 H 0 Z" transform="translate(-70.093402,-32.743901)"/></clipPath></defs><line id="line2794" x1=".716" x2=".716" y1="1.082" y2="623.928" style="fill:none;stroke:#fff;stroke-width:1.43196;stroke-linecap:round;stroke-linejoin:round;stroke-dasharray:none"/><line id="line2796" x1="142.41" x2="142.41" y1="1.082" y2="623.51" style="fill:none;stroke:#fff;stroke-width:1.43199px;stroke-linecap:round;stroke-linejoin:round"/><line id="line2798" x1="284.202" x2="284.202" y1="1.025" y2="567.266" style="fill:none;stroke:#fff;stroke-width:1.36584px;stroke-linecap:round;stroke-linejoin:round"/><line id="line2800" x1="709.384" x2="709.384" y1="623.928" y2="1.082" style="fill:none;stroke:#fff;stroke-width:1.43199px;stroke-linecap:round;stroke-linejoin:round"/><line id="line2802" x1=".71" x2="227.046" y1="596" y2="596" style="fill:none;stroke:#fff;stroke-width:1.3989;stroke-linecap:square;stroke-linejoin:round;stroke-miterlimit:4;stroke-dasharray:none"/><line id="line2802-8" x1="483.129" x2="708.968" y1="596.171" y2="596.171" style="fill:none;stroke:#fff;stroke-width:1.4;stroke-linecap:square;stroke-linejoin:round;stroke-miterlimit:4;stroke-dasharray:none"/><line id="line2806" x1="1.2" x2="709.4" y1="454.3" y2="454.3" style="fill:none;stroke:#fff;stroke-width:1.4px;stroke-linecap:round;stroke-linejoin:round"/><line id="line2808" x1="1.2" x2="709.4" y1="312.6" y2="312.6" style="fill:none;stroke:#fff;stroke-width:1.4px;stroke-linecap:round;stroke-linejoin:round"/><line id="line2810" x1="1.2" x2="709.4" y1="170.8" y2="170.8" style="fill:none;stroke:#fff;stroke-width:1.4px;stroke-linecap:round;stroke-linejoin:round"/><line id="line2812" x1="1.2" x2="709.4" y1="29.1" y2="29.1" style="fill:none;stroke:#fff;stroke-width:1.4px;stroke-linecap:round;stroke-linejoin:round"/><line id="line2814" x1="709.4" x2=".7" y1=".7" y2=".7" style="fill:none;stroke:#fff;stroke-width:1.4px;stroke-linecap:round;stroke-linejoin:round"/><line id="line2816" x1="425.922" x2="425.922" y1="1.146" y2="567.112" style="fill:none;stroke:#fff;stroke-width:1.49174px;stroke-linecap:round;stroke-linejoin:round"/><line id="line2820" x1="567.632" x2="567.632" y1="1.251" y2="622.756" style="fill:none;stroke:#fff;stroke-width:1.56321px;stroke-linecap:round;stroke-linejoin:round"/><line id="line2826" x1="85.812" x2="85.812" y1="1.082" y2="623.824" style="fill:none;stroke:#fff;stroke-width:.40914px;stroke-linecap:round;stroke-linejoin:round"/><line id="line2828" x1="114.111" x2="114.111" y1="1.082" y2="623.824" style="fill:none;stroke:#fff;stroke-width:.40914px;stroke-linecap:round;stroke-linejoin:round"/><line id="line2830" x1="170.808" x2="170.808" y1="1.082" y2="623.824" style="fill:none;stroke:#fff;stroke-width:.40914px;stroke-linecap:round;stroke-linejoin:round"/><line id="line2832" x1="199.107" x2="199.107" y1="1.082" y2="623.824" style="fill:none;stroke:#fff;stroke-width:.40914px;stroke-linecap:round;stroke-linejoin:round"/><line id="line2834" x1="227.506" x2="227.506" y1="1.082" y2="623.824" style="fill:none;stroke:#fff;stroke-width:.40914px;stroke-linecap:round;stroke-linejoin:round"/><line id="line2836" x1="255.804" x2="255.804" y1="1.063" y2="567.534" style="fill:none;stroke:#fff;stroke-width:.390217px;stroke-linecap:round;stroke-linejoin:round"/><line id="line2838" x1="312.478" x2="312.478" y1="1.045" y2="567.583" style="fill:none;stroke:#fff;stroke-width:.390326px;stroke-linecap:round;stroke-linejoin:round"/><line id="line2840" x1="340.889" x2="340.889" y1="1.045" y2="567.583" style="fill:none;stroke:#fff;stroke-width:.390326px;stroke-linecap:round;stroke-linejoin:round"/><line id="line2842" x1="680.985" x2="680.985" y1="1.082" y2="623.824" style="fill:none;stroke:#fff;stroke-width:.40914px;stroke-linecap:round;stroke-linejoin:round"/><line id="line2844" x1="29.115" x2="29.115" y1="1.082" y2="623.824" style="fill:none;stroke:#fff;stroke-width:.40914px;stroke-linecap:round;stroke-linejoin:round"/><line id="line2846" x1="57.413" x2="57.413" y1="1.082" y2="623.824" style="fill:none;stroke:#fff;stroke-width:.40914px;stroke-linecap:round;stroke-linejoin:round"/><line id="line2848" x1="1.5" x2="709.4" y1="482.6" y2="482.6" style="fill:none;stroke:#fff;stroke-width:.4px;stroke-linecap:round;stroke-linejoin:round"/><line id="line2850" x1="1.5" x2="709.4" y1="511" y2="511" style="fill:none;stroke:#fff;stroke-width:.4px;stroke-linecap:round;stroke-linejoin:round"/><line id="line2852" x1="1.5" x2="709.4" y1="539.3" y2="539.3" style="fill:none;stroke:#fff;stroke-width:.4px;stroke-linecap:round;stroke-linejoin:round"/><line id="line2854" x1="1.5" x2="709.4" y1="567.7" y2="567.7" style="fill:none;stroke:#fff;stroke-width:.4px;stroke-linecap:round;stroke-linejoin:round"/><line id="line2854-7" x1="1.5" x2="709.4" y1="623.9" y2="623.9" style="fill:none;stroke:#fff;stroke-width:1.4;stroke-linecap:round;stroke-linejoin:round;stroke-dasharray:none"/><line id="line2856" x1="1.5" x2="709.4" y1="425.9" y2="425.9" style="fill:none;stroke:#fff;stroke-width:.4px;stroke-linecap:round;stroke-linejoin:round"/><line id="line2858" x1="1.5" x2="709.4" y1="397.6" y2="397.6" style="fill:none;stroke:#fff;stroke-width:.4px;stroke-linecap:round;stroke-linejoin:round"/><line id="line2860" x1="1.5" x2="709.4" y1="369.2" y2="369.2" style="fill:none;stroke:#fff;stroke-width:.4px;stroke-linecap:round;stroke-linejoin:round"/><line id="line2862" x1="1.5" x2="709.4" y1="340.9" y2="340.9" style="fill:none;stroke:#fff;stroke-width:.4px;stroke-linecap:round;stroke-linejoin:round"/><line id="line2864" x1="1.5" x2="709.4" y1="284.2" y2="284.2" style="fill:none;stroke:#fff;stroke-width:.4px;stroke-linecap:round;stroke-linejoin:round"/><line id="line2866" x1="1.5" x2="709.4" y1="255.8" y2="255.8" style="fill:none;stroke:#fff;stroke-width:.4px;stroke-linecap:round;stroke-linejoin:round"/><line id="line2868" x1="1.5" x2="709.4" y1="227.5" y2="227.5" style="fill:none;stroke:#fff;stroke-width:.4px;stroke-linecap:round;stroke-linejoin:round"/><line id="line2870" x1="1.5" x2="709.4" y1="199.2" y2="199.2" style="fill:none;stroke:#fff;stroke-width:.4px;stroke-linecap:round;stroke-linejoin:round"/><line id="line2872" x1="1.5" x2="709.4" y1="142.5" y2="142.5" style="fill:none;stroke:#fff;stroke-width:.4px;stroke-linecap:round;stroke-linejoin:round"/><line id="line2874" x1="1.5" x2="709.4" y1="114.1" y2="114.1" style="fill:none;stroke:#fff;stroke-width:.4px;stroke-linecap:round;stroke-linejoin:round"/><line id="line2876" x1="1.5" x2="709.4" y1="85.8" y2="85.8" style="fill:none;stroke:#fff;stroke-width:.4px;stroke-linecap:round;stroke-linejoin:round"/><line id="line2878" x1="1.5" x2="709.4" y1="57.4" y2="57.4" style="fill:none;stroke:#fff;stroke-width:.4px;stroke-linecap:round;stroke-linejoin:round"/><line id="line2880" x1="369.2" x2="369.2" y1="1.068" y2="567.586" style="fill:none;stroke:#fff;stroke-width:.416833px;stroke-linecap:round;stroke-linejoin:round"/><line id="line2884" x1="397.61" x2="397.61" y1="1.081" y2="567.657" style="fill:none;stroke:#fff;stroke-width:.426434px;stroke-linecap:round;stroke-linejoin:round"/><line id="line2888" x1="454.177" x2="454.177" y1="1.057" y2="567.389" style="fill:none;stroke:#fff;stroke-width:.426682;stroke-linecap:round;stroke-linejoin:round;stroke-dasharray:none"/><line id="line2892" x1="482.612" x2="482.612" y1="1.118" y2="623.438" style="fill:none;stroke:#fff;stroke-width:.44687px;stroke-linecap:round;stroke-linejoin:round"/><line id="line2896" x1="510.916" x2="510.916" y1="1.118" y2="623.438" style="fill:none;stroke:#fff;stroke-width:.44687px;stroke-linecap:round;stroke-linejoin:round"/><line id="line2900" x1="539.321" x2="539.321" y1="1.118" y2="623.438" style="fill:none;stroke:#fff;stroke-width:.44687px;stroke-linecap:round;stroke-linejoin:round"/><line id="line2904" x1="595.952" x2="595.952" y1="1.155" y2="623.363" style="fill:none;stroke:#fff;stroke-width:.44691px;stroke-linecap:round;stroke-linejoin:round"/><line id="line2906" x1="624.266" x2="624.266" y1="1.155" y2="623.363" style="fill:none;stroke:#fff;stroke-width:.44691px;stroke-linecap:round;stroke-linejoin:round"/><line id="line2908" x1="652.687" x2="652.687" y1="1.111" y2="623.517" style="fill:none;stroke:#fff;stroke-width:.436853px;stroke-linecap:round;stroke-linejoin:round"/><path id="path120" d="M 0,0 C 0.361,0.533 0.624,1.134 0.789,1.802 0.954,2.469 1.036,3.156 1.036,3.862 1.036,4.6 0.954,5.314 0.789,6.005 0.624,6.696 0.361,7.313 0,7.854 -0.361,8.396 -0.832,8.828 -1.413,9.15 -1.994,9.471 -2.701,9.632 -3.533,9.632 -4.365,9.632 -5.071,9.471 -5.652,9.15 -6.233,8.828 -6.704,8.396 -7.065,7.854 -7.427,7.313 -7.689,6.696 -7.854,6.005 -8.019,5.314 -8.102,4.6 -8.102,3.862 c 0,-0.706 0.083,-1.393 0.248,-2.06 0.165,-0.668 0.427,-1.269 0.789,-1.802 0.361,-0.534 0.832,-0.962 1.413,-1.284 0.581,-0.322 1.287,-0.482 2.119,-0.482 0.832,0 1.539,0.16 2.12,0.482 C -0.832,-0.962 -0.361,-0.534 0,0" clip-path="url(#clipPath121)" transform="matrix(1.061059,0,0,-1.061059,420.81641,600.14683)" style="fill:#fff;fill-opacity:1;fill-rule:nonzero;stroke:none"/><path id="path122" d="m 0,0 c -1.021,0.455 -1.884,1.075 -2.591,1.86 -0.706,0.786 -1.248,1.712 -1.625,2.78 -0.377,1.067 -0.565,2.205 -0.565,3.415 0,1.24 0.188,2.402 0.565,3.485 0.377,1.084 0.919,2.026 1.625,2.826 0.707,0.801 1.57,1.429 2.591,1.884 1.021,0.456 2.182,0.683 3.486,0.683 1.303,0 2.465,-0.227 3.485,-0.683 1.021,-0.455 1.884,-1.083 2.591,-1.884 0.707,-0.8 1.248,-1.742 1.625,-2.826 0.377,-1.083 0.565,-2.245 0.565,-3.485 0,-1.21 -0.188,-2.348 -0.565,-3.415 C 10.81,3.572 10.269,2.646 9.562,1.86 8.855,1.075 7.992,0.455 6.971,0 5.951,-0.455 4.789,-0.683 3.486,-0.683 2.182,-0.683 1.021,-0.455 0,0 M 17.014,16.533 24.032,5.252 h 0.047 v 11.281 h 3.462 V -0.283 H 23.844 L 16.849,10.975 H 16.802 V -0.283 H 13.34 v 16.816 z m 25.501,0 V 13.424 H 33.637 V 9.821 h 8.148 V 6.948 H 33.637 V 2.826 h 9.067 V -0.283 H 29.939 V 16.533 Z M 46.901,-0.89 v 18.028 c 0,1.869 -1.515,3.385 -3.385,3.385 H -5.593 c -1.87,0 -3.385,-1.516 -3.385,-3.385 V -0.89 c 0,-1.87 1.515,-3.386 3.385,-3.386 h 49.109 c 1.87,0 3.385,1.516 3.385,3.386" clip-path="url(#clipPath123)" transform="matrix(1.061059,0,0,-1.061059,413.36958,604.59511)" style="fill:#fff;fill-opacity:1;fill-rule:nonzero;stroke:none"/><path id="path124" d="M 0,0 H 2.873 C 3.297,0 3.705,0.031 4.098,0.094 4.49,0.157 4.836,0.279 5.134,0.459 5.432,0.64 5.672,0.895 5.852,1.225 6.033,1.554 6.123,1.986 6.123,2.52 6.123,3.054 6.033,3.486 5.852,3.815 5.672,4.145 5.432,4.4 5.134,4.581 4.836,4.761 4.49,4.883 4.098,4.946 3.705,5.008 3.297,5.04 2.873,5.04 H 0 Z M -3.698,7.913 H 3.886 C 4.938,7.913 5.833,7.76 6.571,7.454 7.308,7.148 7.909,6.744 8.372,6.241 8.835,5.739 9.173,5.161 9.385,4.51 9.597,3.859 9.703,3.195 9.703,2.52 9.703,1.829 9.597,1.162 9.385,0.518 9.173,-0.126 8.835,-0.699 8.372,-1.201 7.909,-1.704 7.308,-2.108 6.571,-2.414 5.833,-2.72 4.938,-2.873 3.886,-2.873 H 0 v -6.029 h -3.698 z" clip-path="url(#clipPath125)" transform="matrix(1.061059,0,0,-1.061059,251.1205,595.45057)" style="fill:#fff;fill-opacity:1;fill-rule:nonzero;stroke:none"/><path id="path126" d="M 0,0 H 4.051 C 4.883,0 5.514,0.188 5.947,0.565 6.378,0.942 6.594,1.554 6.594,2.402 6.594,3.218 6.378,3.811 5.947,4.18 5.514,4.549 4.883,4.734 4.051,4.734 H 0 Z M -3.698,7.607 H 5.37 C 6.123,7.607 6.802,7.485 7.407,7.242 8.011,6.999 8.529,6.665 8.961,6.241 9.393,5.817 9.723,5.322 9.951,4.757 10.178,4.192 10.292,3.595 10.292,2.968 10.292,1.978 10.084,1.122 9.668,0.4 9.252,-0.322 8.573,-0.871 7.63,-1.248 v -0.047 c 0.456,-0.126 0.833,-0.318 1.131,-0.577 0.298,-0.259 0.542,-0.57 0.73,-0.931 0.189,-0.361 0.326,-0.75 0.412,-1.165 0.086,-0.417 0.145,-0.837 0.177,-1.261 0.015,-0.267 0.031,-0.581 0.047,-0.942 0.015,-0.361 0.043,-0.726 0.083,-1.095 0.039,-0.369 0.101,-0.726 0.188,-1.071 0.086,-0.346 0.216,-0.636 0.388,-0.872 H 7.089 C 6.979,-8.942 6.896,-8.648 6.842,-8.326 6.786,-8.004 6.739,-7.666 6.7,-7.313 6.661,-6.96 6.63,-6.599 6.606,-6.229 6.583,-5.861 6.547,-5.511 6.5,-5.181 6.374,-4.302 6.107,-3.659 5.699,-3.25 5.291,-2.842 4.624,-2.638 3.698,-2.638 H 0 v -6.571 h -3.698 z" clip-path="url(#clipPath127)" transform="matrix(1.061059,0,0,-1.061059,266.41631,595.12547)" style="fill:#fff;fill-opacity:1;fill-rule:nonzero;stroke:none"/><path id="path128" d="m 0,0 c 0,-2.277 -0.636,-3.973 -1.908,-5.087 -1.271,-1.115 -3.03,-1.672 -5.275,-1.672 -2.277,0 -4.039,0.553 -5.288,1.66 -1.248,1.107 -1.872,2.806 -1.872,5.099 v 10.457 h 3.698 V 0 c 0,-0.456 0.039,-0.903 0.118,-1.343 0.078,-0.439 0.243,-0.832 0.494,-1.177 0.251,-0.346 0.601,-0.62 1.048,-0.825 0.448,-0.204 1.048,-0.306 1.802,-0.306 1.319,0 2.229,0.295 2.732,0.884 0.502,0.588 0.753,1.511 0.753,2.767 V 10.457 H 0 Z" clip-path="url(#clipPath129)" transform="matrix(1.061059,0,0,-1.061059,294.49913,598.14917)" style="fill:#fff;fill-opacity:1;fill-rule:nonzero;stroke:none"/><path id="path130" d="m 0,0 c 0,-0.565 0.102,-1.045 0.306,-1.437 0.204,-0.392 0.475,-0.71 0.813,-0.954 0.337,-0.243 0.73,-0.424 1.177,-0.541 0.448,-0.118 0.923,-0.177 1.425,-0.177 0.33,0 0.683,0.027 1.06,0.083 0.377,0.054 0.73,0.16 1.06,0.317 0.33,0.157 0.604,0.373 0.824,0.648 0.22,0.275 0.33,0.624 0.33,1.048 0,0.456 -0.146,0.825 -0.436,1.107 C 6.268,0.377 5.888,0.616 5.417,0.812 4.946,1.008 4.412,1.174 3.815,1.307 3.219,1.44 2.614,1.593 2.002,1.766 1.374,1.923 0.762,2.116 0.165,2.343 -0.432,2.571 -0.966,2.865 -1.437,3.227 -1.908,3.588 -2.288,4.035 -2.579,4.569 -2.87,5.102 -3.015,5.762 -3.015,6.547 c 0,0.864 0.185,1.614 0.554,2.249 0.369,0.636 0.851,1.166 1.448,1.59 0.597,0.424 1.272,0.738 2.026,0.942 0.753,0.204 1.507,0.306 2.261,0.306 0.879,0 1.723,-0.098 2.531,-0.294 C 6.614,11.144 7.332,10.825 7.96,10.386 8.588,9.946 9.087,9.385 9.456,8.702 9.825,8.019 10.01,7.191 10.01,6.218 H 6.43 C 6.398,6.72 6.292,7.136 6.112,7.466 5.931,7.796 5.691,8.055 5.393,8.243 5.095,8.431 4.749,8.564 4.357,8.643 3.965,8.722 3.548,8.761 3.109,8.761 2.81,8.761 2.512,8.73 2.214,8.667 1.915,8.604 1.644,8.494 1.401,8.337 1.158,8.18 0.958,7.98 0.801,7.736 0.644,7.493 0.565,7.199 0.565,6.854 0.565,6.524 0.628,6.257 0.754,6.053 0.879,5.849 1.126,5.664 1.496,5.499 1.864,5.334 2.375,5.161 3.026,4.981 3.678,4.801 4.53,4.577 5.582,4.31 5.786,4.263 6.053,4.196 6.382,4.11 6.712,4.023 7.061,3.905 7.43,3.756 7.799,3.607 8.168,3.415 8.538,3.179 8.906,2.944 9.244,2.653 9.55,2.308 9.856,1.962 10.103,1.55 10.292,1.071 c 0.188,-0.478 0.283,-1.032 0.283,-1.66 0,-0.769 -0.15,-1.484 -0.448,-2.143 C 9.829,-3.391 9.385,-3.961 8.797,-4.44 8.208,-4.919 7.478,-5.295 6.606,-5.57 5.735,-5.844 4.726,-5.982 3.58,-5.982 c -0.927,0 -1.825,0.118 -2.697,0.353 -0.871,0.236 -1.637,0.597 -2.296,1.083 -0.66,0.487 -1.189,1.107 -1.59,1.861 -0.4,0.754 -0.593,1.649 -0.577,2.685 z" clip-path="url(#clipPath131)" transform="matrix(1.061059,0,0,-1.061059,299.57439,598.97382)" style="fill:#fff;fill-opacity:1;fill-rule:nonzero;stroke:none"/><path id="path132" d="M 0,0 H 4.357 L 2.237,6.171 H 2.19 Z M 0.353,10.316 H 4.145 L 10.434,-6.5 H 6.594 L 5.323,-2.755 H -0.966 L -2.284,-6.5 h -3.745 z" clip-path="url(#clipPath133)" transform="matrix(1.061059,0,0,-1.061059,316.58932,597.99935)" style="fill:#fff;fill-opacity:1;fill-rule:nonzero;stroke:none"/><path id="path134" d="m 0,0 c -0.063,0.424 -0.204,0.813 -0.424,1.166 -0.22,0.353 -0.495,0.663 -0.824,0.93 -0.33,0.267 -0.703,0.475 -1.119,0.624 -0.416,0.149 -0.852,0.224 -1.307,0.224 -0.833,0 -1.539,-0.161 -2.12,-0.483 C -6.375,2.139 -6.846,1.708 -7.207,1.166 -7.568,0.624 -7.831,0.008 -7.996,-0.683 c -0.165,-0.691 -0.247,-1.405 -0.247,-2.143 0,-0.707 0.082,-1.394 0.247,-2.061 0.165,-0.667 0.428,-1.268 0.789,-1.801 0.361,-0.535 0.832,-0.963 1.413,-1.284 0.581,-0.322 1.287,-0.483 2.12,-0.483 1.13,0 2.014,0.349 2.65,1.048 0.635,0.698 1.024,1.605 1.165,2.72 h 3.58 C 3.627,-5.739 3.383,-6.688 2.991,-7.537 2.598,-8.384 2.08,-9.107 1.437,-9.703 0.793,-10.3 0.039,-10.759 -0.824,-11.081 c -0.864,-0.322 -1.814,-0.483 -2.85,-0.483 -1.303,0 -2.465,0.228 -3.486,0.683 -1.02,0.455 -1.884,1.076 -2.591,1.861 -0.706,0.785 -1.248,1.711 -1.624,2.779 -0.377,1.067 -0.566,2.206 -0.566,3.415 0,1.24 0.189,2.402 0.566,3.486 0.376,1.083 0.918,2.025 1.624,2.826 0.707,0.801 1.571,1.428 2.591,1.884 1.021,0.455 2.183,0.683 3.486,0.683 0.926,0 1.801,-0.134 2.626,-0.401 C -0.224,5.385 0.514,4.997 1.166,4.487 1.817,3.976 2.355,3.345 2.779,2.591 3.203,1.837 3.47,0.973 3.58,0 Z" clip-path="url(#clipPath135)" transform="matrix(1.061059,0,0,-1.061059,344.78346,593.05141)" style="fill:#ed6c21;fill-opacity:1;fill-rule:nonzero;stroke:none"/><path id="path136" d="m 0,0 c 0,-0.707 0.082,-1.394 0.247,-2.061 0.165,-0.667 0.428,-1.268 0.789,-1.801 0.361,-0.534 0.832,-0.962 1.413,-1.284 0.581,-0.322 1.287,-0.483 2.12,-0.483 0.832,0 1.539,0.161 2.12,0.483 0.58,0.322 1.051,0.75 1.413,1.284 0.361,0.533 0.624,1.134 0.789,1.801 C 9.055,-1.394 9.138,-0.707 9.138,0 9.138,0.738 9.055,1.452 8.891,2.143 8.726,2.834 8.463,3.45 8.102,3.992 7.74,4.534 7.269,4.965 6.689,5.287 6.108,5.609 5.401,5.77 4.569,5.77 3.736,5.77 3.03,5.609 2.449,5.287 1.868,4.965 1.397,4.534 1.036,3.992 0.675,3.45 0.412,2.834 0.247,2.143 0.082,1.452 0,0.738 0,0 m -3.697,0 c 0,1.24 0.188,2.402 0.565,3.486 0.377,1.083 0.918,2.025 1.625,2.826 0.706,0.801 1.57,1.428 2.59,1.884 1.021,0.455 2.183,0.683 3.486,0.683 1.303,0 2.465,-0.228 3.486,-0.683 C 9.075,7.74 9.939,7.113 10.645,6.312 11.352,5.511 11.894,4.569 12.27,3.486 12.647,2.402 12.836,1.24 12.836,0 12.836,-1.209 12.647,-2.348 12.27,-3.415 11.894,-4.483 11.352,-5.409 10.645,-6.194 9.939,-6.979 9.075,-7.599 8.055,-8.055 7.034,-8.51 5.872,-8.738 4.569,-8.738 c -1.303,0 -2.465,0.228 -3.486,0.683 -1.02,0.456 -1.884,1.076 -2.59,1.861 -0.707,0.785 -1.248,1.711 -1.625,2.779 -0.377,1.067 -0.565,2.206 -0.565,3.415" clip-path="url(#clipPath137)" transform="matrix(1.061059,0,0,-1.061059,353.42961,596.05008)" style="fill:#ed6c21;fill-opacity:1;fill-rule:nonzero;stroke:none"/><path id="path138" d="M 0,0 H 4.051 C 4.883,0 5.514,0.188 5.947,0.565 6.378,0.942 6.594,1.554 6.594,2.402 6.594,3.218 6.378,3.811 5.947,4.18 5.514,4.549 4.883,4.734 4.051,4.734 H 0 Z M -3.698,7.607 H 5.37 C 6.123,7.607 6.802,7.485 7.407,7.242 8.011,6.999 8.529,6.665 8.961,6.241 9.393,5.817 9.723,5.322 9.951,4.757 10.178,4.192 10.292,3.595 10.292,2.968 10.292,1.978 10.084,1.122 9.668,0.4 9.252,-0.322 8.573,-0.871 7.63,-1.248 v -0.047 c 0.456,-0.126 0.833,-0.318 1.131,-0.577 0.298,-0.259 0.542,-0.57 0.73,-0.931 0.189,-0.361 0.326,-0.75 0.412,-1.165 0.086,-0.417 0.145,-0.837 0.177,-1.261 0.015,-0.267 0.031,-0.581 0.047,-0.942 0.015,-0.361 0.043,-0.726 0.083,-1.095 0.039,-0.369 0.101,-0.726 0.188,-1.071 0.086,-0.346 0.216,-0.636 0.388,-0.872 H 7.089 C 6.979,-8.942 6.896,-8.648 6.842,-8.326 6.786,-8.004 6.739,-7.666 6.7,-7.313 6.661,-6.96 6.63,-6.599 6.606,-6.229 6.583,-5.861 6.547,-5.511 6.5,-5.181 6.374,-4.302 6.107,-3.659 5.699,-3.25 5.291,-2.842 4.624,-2.638 3.698,-2.638 H 0 v -6.571 h -3.698 z" clip-path="url(#clipPath139)" transform="matrix(1.061059,0,0,-1.061059,372.65686,595.12547)" style="fill:#ed6c21;fill-opacity:1;fill-rule:nonzero;stroke:none"/><path id="path140" d="M 0,0 H 12.577 V -3.109 H 3.698 v -3.603 h 8.148 V -9.585 H 3.698 v -4.122 h 9.067 v -3.109 H 0 Z" clip-path="url(#clipPath141)" transform="matrix(1.061059,0,0,-1.061059,385.78576,587.05389)" style="fill:#ed6c21;fill-opacity:1;fill-rule:nonzero;stroke:none"/></svg>