<svg xmlns="http://www.w3.org/2000/svg" xmlns:xlink="http://www.w3.org/1999/xlink" id="Layer_1" x="0" y="0" enable-background="new 0 0 16 16" version="1.0" viewBox="0 0 16 16" xml:space="preserve"><g id="modifer_x5F_bed"><line x1="2" x2="13" y1="13" y2="13" fill="none" stroke="#ED6B21" stroke-linecap="round" stroke-linejoin="round" stroke-miterlimit="10" stroke-width="2"/><path fill="gray" d="M10.87,7.48c-0.2,0-0.37,0.16-0.37,0.37v1.47v0.74c0,0.2-0.17,0.37-0.37,0.37H4.97 c-0.2,0-0.37-0.17-0.37-0.37L4.57,4.91c0-0.1,0.04-0.19,0.11-0.26c0.07-0.07,0.16-0.11,0.26-0.11l2.25,0v0 c0.2,0,0.37-0.16,0.37-0.37c0-0.2-0.16-0.37-0.37-0.37H5.71c0,0-0.01,0-0.01,0l-0.76,0c-0.3,0-0.57,0.12-0.78,0.33 C3.95,4.34,3.83,4.61,3.83,4.91l0.03,5.15c0,0.61,0.5,1.1,1.11,1.1h5.16c0.61,0,1.11-0.5,1.11-1.11V9.32V7.85 C11.24,7.65,11.07,7.48,10.87,7.48z"/><circle cx="10.88" cy="4.12" r="2.12" fill="gray" stroke="gray" stroke-miterlimit="10"/></g></svg>