<svg xmlns="http://www.w3.org/2000/svg" xmlns:xlink="http://www.w3.org/1999/xlink" id="Layer_1" x="0" y="0" enable-background="new 0 0 16 16" version="1.0" viewBox="0 0 16 16" xml:space="preserve"><g><g><path fill="#ED6B21" d="M8,11c-0.55,0-1-0.45-1-1V7c0-0.55,0.45-1,1-1s1,0.45,1,1v3C9,10.55,8.55,11,8,11z"/></g><g><circle cx="8" cy="13" r="1" fill="#ED6B21"/></g><g><path fill="#ED6B21" d="M15,15.5H1c-0.18,0-0.34-0.09-0.43-0.24c-0.09-0.15-0.09-0.34-0.01-0.49l7-13c0.17-0.32,0.71-0.32,0.88,0 l7,13c0.08,0.16,0.08,0.34-0.01,0.49C15.34,15.41,15.18,15.5,15,15.5z M1.84,14.5h12.33L8,3.05L1.84,14.5z"/></g></g></svg>