<svg xmlns="http://www.w3.org/2000/svg" xmlns:xlink="http://www.w3.org/1999/xlink" id="Layer_1" x="0" y="0" enable-background="new 0 0 16 16" version="1.0" viewBox="0 0 16 16" xml:space="preserve"><g id="import_x5F_plater"><g><path fill="gray" d="M13,2c0.55,0,1,0.45,1,1V13c0,0.55-0.45,1-1,1H3c-0.55,0-1-0.45-1-1V3c0-0.55,0.45-1,1-1H13 M13,1H3 c-1.1,0-2,0.89-2,2V13c0,1.1,0.89,2,2,2H13c1.1,0,2-0.89,2-2V3C15,1.89,14.11,1,13,1L13,1z"/></g><g><path fill="#ED6B21" d="M8,12c-0.55,0-1-0.45-1-1V5c0-0.55,0.45-1,1-1s1,0.45,1,1v6C9,11.55,8.55,12,8,12z"/></g><g><path fill="#ED6B21" d="M11,9H5C4.45,9,4,8.55,4,8s0.45-1,1-1h6c0.55,0,1,0.45,1,1S11.55,9,11,9z"/></g></g></svg>