<svg xmlns="http://www.w3.org/2000/svg" xmlns:xlink="http://www.w3.org/1999/xlink" id="Layer_1" x="0" y="0" enable-background="new 0 0 16 16" version="1.0" viewBox="0 0 16 16" xml:space="preserve"><g id="infill"><g><defs><polygon id="SVGID_1_" points="8 1.03 2 5.03 2 7.03 2 11.03 8 15.03 14 11.03 14 7.03 14 5.03"/></defs><clipPath id="SVGID_2_"><use overflow="visible" xlink:href="#SVGID_1_"/></clipPath><g clip-path="url(#SVGID_2_)"><line x1="2.32" x2="8.56" y1="11.59" y2="1.34" fill="none" stroke="#ED6B21" stroke-linecap="round" stroke-linejoin="round" stroke-miterlimit="10" stroke-width=".7"/><line x1="4.88" x2="11.12" y1="13.15" y2="2.9" fill="none" stroke="#ED6B21" stroke-linecap="round" stroke-linejoin="round" stroke-miterlimit="10" stroke-width=".7"/><line x1="7.44" x2="13.68" y1="14.71" y2="4.46" fill="none" stroke="#ED6B21" stroke-linecap="round" stroke-linejoin="round" stroke-miterlimit="10" stroke-width=".7"/><line x1="4.44" x2="14.68" y1="2.34" y2="8.59" fill="none" stroke="#ED6B21" stroke-linecap="round" stroke-linejoin="round" stroke-miterlimit="10" stroke-width=".7"/><line x1="2.88" x2="13.12" y1="4.91" y2="11.15" fill="none" stroke="#ED6B21" stroke-linecap="round" stroke-linejoin="round" stroke-miterlimit="10" stroke-width=".7"/><line x1="1.32" x2="11.56" y1="7.47" y2="13.71" fill="none" stroke="#ED6B21" stroke-linecap="round" stroke-linejoin="round" stroke-miterlimit="10" stroke-width=".7"/></g></g><g><path fill="gray" d="M8,2.23l5,3.33v1.46v3.46l-5,3.33l-5-3.33V7.03V5.56L8,2.23 M8,1.03l-6,4v2v4l6,4l6-4v-4v-2L8,1.03L8,1.03 z"/></g></g></svg>