<svg xmlns="http://www.w3.org/2000/svg" xmlns:svg="http://www.w3.org/2000/svg" id="Capa_1" x="0" y="0" version="1.1" viewBox="0 0 348.882 348.882" style="enable-background:new 0 0 348.882 348.882" xml:space="preserve"><path id="path3790" fill="#333" d="m 168.35743,271.22732 a 7.3770678,7.3770678 0 0 0 2.35439,5.49356 7.5340268,7.5340268 0 0 0 10.98712,0 l 92.13487,-91.82095 a 7.5340268,7.5340268 0 0 0 0,-10.98712 7.5340268,7.5340268 0 0 0 -10.98712,0 l -92.13487,91.82095 a 7.3770678,7.3770678 0 0 0 -2.35439,5.49356 z" style="fill:#ed6b21;fill-opacity:1;stroke-width:4;stroke:#ed6b21;stroke-opacity:1;stroke-miterlimit:4;stroke-dasharray:none"/><path id="path3792" fill="#333" d="m 76.222558,179.09246 a 7.3770678,7.3770678 0 0 0 2.354394,5.80747 l 92.134868,91.82095 a 7.5340268,7.5340268 0 0 0 10.98712,0 7.5340268,7.5340268 0 0 0 0,-10.98712 L 89.564071,173.59889 a 7.5340268,7.5340268 0 0 0 -10.987119,0 7.3770678,7.3770678 0 0 0 -2.354394,5.49357 z m 92.134872,18.20723 a 8.0049033,8.0049033 0 0 0 2.35439,5.65052 7.8479445,7.8479445 0 0 0 10.98712,0 l 92.13487,-92.29183 a 7.5340268,7.5340268 0 0 0 0,-10.987123 7.5340268,7.5340268 0 0 0 -10.98712,0 l -92.13487,92.134873 a 7.6909855,7.6909855 0 0 0 -2.35439,5.49356 z" style="fill:#ed6b21;fill-opacity:1;stroke-width:4;stroke:#ed6b21;stroke-opacity:1;stroke-miterlimit:4;stroke-dasharray:none"/><path id="path3794" fill="#333" d="m 76.222558,105.16482 a 7.3770678,7.3770678 0 0 0 2.354394,5.49356 l 92.134868,92.29183 a 7.8479445,7.8479445 0 0 0 10.98712,0 7.8479445,7.8479445 0 0 0 0,-11.14408 L 89.564071,99.671257 a 7.8479445,7.8479445 0 0 0 -13.341513,5.493563 z m 92.134872,18.20723 a 8.0049033,8.0049033 0 0 0 2.35439,5.65052 7.8479445,7.8479445 0 0 0 10.98712,0 l 92.13487,-92.134866 a 7.8479445,7.8479445 0 0 0 0,-11.144082 7.8479445,7.8479445 0 0 0 -10.98712,0 l -92.13487,92.134868 a 7.8479445,7.8479445 0 0 0 -2.35439,5.49356 z" style="fill:#ed6b21;fill-opacity:1;stroke-width:4;stroke:#ed6b21;stroke-opacity:1;stroke-miterlimit:4;stroke-dasharray:none"/><path id="path3796" fill="#333" d="m 76.222558,31.237177 a 8.0049033,8.0049033 0 0 0 2.354394,5.650527 l 92.134868,92.134866 a 7.8479445,7.8479445 0 0 0 10.98712,0 7.8479445,7.8479445 0 0 0 0,-11.14408 L 89.564071,25.743622 a 7.8479445,7.8479445 0 0 0 -13.341513,5.493555 z" style="fill:#ed6b21;fill-opacity:1;stroke-width:4;stroke:#ed6b21;stroke-opacity:1;stroke-miterlimit:4;stroke-dasharray:none"/><rect style="fill:#49adcf;fill-opacity:1" id="rect4805" width="280.724" height="36.458" x="34.635" y="295.915"/></svg>