<svg xmlns="http://www.w3.org/2000/svg" xmlns:svg="http://www.w3.org/2000/svg" id="Layer_1" style="enable-background:new 0 0 96 96" version="1.1" viewBox="0 0 96 96" xml:space="preserve"><defs id="defs7016"><linearGradient id="linearGradient7403"><stop style="stop-color:#000;stop-opacity:1" id="stop7401" offset="0"/></linearGradient></defs><style id="style6991" type="text/css"/><rect style="fill:#52f083;fill-opacity:1;stroke-width:.262144" id="rect4805" width="73.59" height="9.557" x="11.678" y="81.763"/><g id="g7865" transform="matrix(0.13421773,0,0,0.13421773,16.48933,9.3957966)"><path id="path7859" d="m 355.507,181.955 c 8.793,-6.139 29.39,-20.519 29.39,-55.351 v -71.77 h 9.814 c 4.49,0 8.17,-3.679 8.17,-8.169 V 8.165 C 402.881,3.675 399.2,0 394.711,0 H 78.351 c -4.495,0 -8.165,3.675 -8.165,8.165 v 38.5 c 0,4.491 3.67,8.169 8.165,8.169 h 9.82 v 73.071 c 0,34.499 10.502,42.576 29.074,53.89 l 80.745,49.203 v 20.984 c -20.346,12.23 -73.465,44.242 -80.434,49.107 -8.793,6.135 -29.384,20.51 -29.384,55.352 v 61.793 h -9.82 c -4.495,0 -8.165,3.676 -8.165,8.166 v 38.498 c 0,4.49 3.67,8.17 8.165,8.17 h 316.361 c 4.49,0 8.17,-3.68 8.17,-8.17 V 426.4 c 0,-4.49 -3.681,-8.166 -8.17,-8.166 h -9.814 V 355.13 c 0,-34.493 -10.508,-42.572 -29.069,-53.885 l -80.745,-49.202 v -20.987 c 20.332,-12.225 73.452,-44.234 80.422,-49.101 z m -102.781,90.904 87.802,53.5 c 6.734,4.109 10.333,6.373 12.001,9.002 1.991,3.164 2.963,9.627 2.963,19.768 v 63.104 H 117.574 V 356.44 c 0,-19.507 9.718,-26.289 16.81,-31.242 5.551,-3.865 54.402,-33.389 85.878,-52.289 4.428,-2.658 7.135,-7.441 7.135,-12.611 v -37.563 c 0,-5.123 -2.671,-9.883 -7.053,-12.55 l -87.54,-53.339 -0.265,-0.165 c -6.741,-4.105 -10.336,-6.369 -11.998,-9.009 -1.992,-3.156 -2.968,-9.626 -2.968,-19.767 v -73.07 h 237.918 v 71.77 c 0,19.5 -9.718,26.288 -16.814,31.235 -5.546,3.872 -54.391,33.395 -85.869,52.295 -4.427,2.658 -7.134,7.442 -7.134,12.601 v 37.563 c 0.001,5.132 2.672,9.889 7.052,12.56 z" style="fill:#fff;fill-opacity:1"/><path id="path7861" d="m 331.065,154.234 c 0,0 5.291,-4.619 -2.801,-3.299 -19.178,3.115 -53.079,15.133 -92.079,15.133 -39,0 -57,-11 -82.507,-11.303 -5.569,-0.066 -5.456,3.629 0.937,7.391 6.386,3.758 63.772,35.681 71.671,40.08 7.896,4.389 12.417,4.05 20.786,0 12.174,-5.902 83.993,-48.002 83.993,-48.002 z" style="stroke:#ed6b21;stroke-opacity:1;fill:#ed6b21;fill-opacity:1"/><path id="path7863" d="m 154.311,397.564 c -6.748,6.209 -9.978,10.713 5.536,10.713 12.656,0 139.332,0 155.442,0 16.099,0 9.856,-5.453 2.311,-12.643 -14.576,-13.883 -45.416,-23.566 -82.414,-23.566 -38.754,0 -65.844,11.655 -80.875,25.496 z" style="stroke:#ed6b21;stroke-opacity:1;fill:#ed6b21;fill-opacity:1"/></g></svg>