<svg xmlns="http://www.w3.org/2000/svg" xmlns:svg="http://www.w3.org/2000/svg" xmlns:xlink="http://www.w3.org/1999/xlink" id="Capa_1" x="0" y="0" version="1.1" viewBox="0 0 348.882 348.882" style="enable-background:new 0 0 348.882 348.882" xml:space="preserve"><rect style="fill:#da948b;fill-opacity:1" id="rect4805" width="280.724" height="36.458" x="34.635" y="295.915"/><g id="g5796" transform="matrix(0.5,0,0,0.5,48.819638,25.122266)"><path style="fill:#ffce47" id="path4126" d="m 433.479,205.747 c 75.09,43.351 100.812,139.37 57.461,214.46 -43.351,75.09 -139.37,100.812 -214.46,57.461 -7.304,-4.21 -14.135,-8.93 -20.48,-14.074 l 31.824,-170.903 123.221,-97.645 c 7.632,2.924 15.13,6.491 22.434,10.701 z"/><path style="fill:#ff4181" id="path4128" d="m 78.521,205.747 c -75.09,43.351 -100.812,139.37 -57.461,214.46 43.351,75.09 139.37,100.812 214.46,57.461 7.304,-4.21 14.135,-8.93 20.48,-14.074 L 224.176,292.691 100.955,195.046 c -7.632,2.924 -15.13,6.491 -22.434,10.701 z"/><path style="fill:#4eb9ff" id="path4130" d="m 412.999,170.271 c 0,8.432 -0.667,16.707 -1.953,24.775 L 256,256.196 100.954,195.046 c -1.286,-8.068 -1.953,-16.343 -1.953,-24.775 0,-86.713 70.298,-156.999 156.999,-156.999 86.701,0 156.999,70.285 156.999,156.999 z"/><path style="fill:#ff755c" id="path4132" d="M 312.09,316.957 H 199.91 c -8.7,54.525 12.023,110.943 56.09,146.637 44.066,-35.694 64.789,-92.112 56.09,-146.637 z"/><path style="fill:#85c250" id="path4134" d="m 256,219.797 56.09,97.16 c 51.577,-19.74 90.086,-65.906 98.955,-121.911 C 358.098,174.724 298.865,185 256,219.797 Z"/><path style="fill:#3b8bc0" id="path4136" d="m 100.954,195.046 c 8.869,56.005 47.379,102.171 98.955,121.911 l 56.09,-97.16 C 213.134,185 153.902,174.724 100.954,195.046 Z"/><path style="fill:#174461" id="path4138" d="m 292.981,263.208 c 9.876,17.119 16.173,35.331 19.109,53.748 -17.423,6.661 -36.326,10.313 -56.09,10.313 -19.764,0 -38.667,-3.652 -56.09,-10.313 2.936,-18.418 9.233,-36.629 19.109,-53.749 9.876,-17.107 22.494,-31.667 36.981,-43.411 14.486,11.746 27.105,26.305 36.981,43.412 z"/><use id="use4251" width="100%" height="100%" x="0" y="0" xlink:href="#path4126"/><use id="use4253" width="100%" height="100%" x="0" y="0" xlink:href="#path4128"/><use id="use4255" width="100%" height="100%" x="0" y="0" xlink:href="#path4130"/><use id="use4257" width="100%" height="100%" x="0" y="0" xlink:href="#path4132"/><use id="use4259" width="100%" height="100%" x="0" y="0" xlink:href="#path4134"/><use id="use4261" width="100%" height="100%" x="0" y="0" xlink:href="#path4136"/><use id="use4263" width="100%" height="100%" x="0" y="0" xlink:href="#path4138"/></g></svg>