<svg xmlns="http://www.w3.org/2000/svg" xmlns:svg="http://www.w3.org/2000/svg" style="width:1em;height:1em;vertical-align:middle;fill:currentColor;overflow:hidden" id="svg1878" class="svg-icon" version="1.1" viewBox="0 0 1024 1024"><path id="path1876" d="m 257.84285,390.79005 a 34.420553,34.420553 0 0 0 8.87467,-68.26667 l -60.07467,-15.01866 a 34.133334,34.133334 0 1 0 -17.74933,65.87733 l 60.07466,16.04267 a 26.624,26.624 0 0 0 8.87467,1.36533 z M 389.59752,199.98472 a 34.133334,34.133334 0 0 0 34.13333,25.25866 27.989334,27.989334 0 0 0 8.87467,0 34.133334,34.133334 0 0 0 23.89333,-41.64266 l -16.04267,-60.07467 a 34.133334,34.133334 0 1 0 -65.87733,17.74933 z m 164.864,341.33333 a 34.133334,34.133334 0 0 0 -49.49334,0 L 385.50152,662.83272 a 75.434666,75.434666 0 0 1 -104.448,0 73.386666,73.386666 0 0 1 0,-104.448 L 402.56818,438.91805 a 34.133334,34.133334 0 1 0 -48.128,-48.128 L 231.90152,509.91538 A 142.8846,142.8846 0 1 0 433.97085,711.98472 L 554.46152,591.49405 a 34.133334,34.133334 0 0 0 0,-50.176 z M 272.17885,254.25672 a 34.133334,34.133334 0 0 0 23.89333,9.89866 34.133334,34.133334 0 0 0 24.23467,-9.89866 34.133334,34.133334 0 0 0 0,-48.128 l -44.032,-44.032 a 34.133334,34.133334 0 0 0 -48.128,48.128 z m 548.864,250.19733 -60.07467,-16.04267 a 34.133334,34.133334 0 1 0 -17.06666,65.87734 l 60.07466,16.04266 h 8.87467 a 34.420552,34.420552 0 0 0 8.87467,-68.26666 z m -200.704,173.39733 a 34.133334,34.133334 0 0 0 -41.984,-23.89333 34.133334,34.133334 0 0 0 -23.89333,41.64267 l 16.04266,60.07466 a 34.133334,34.133334 0 0 0 34.13334,25.25867 39.253334,39.253334 0 0 0 8.87466,0 34.133334,34.133334 0 0 0 24.23467,-41.984 z m 117.41867,-53.58933 a 34.133334,34.133334 0 0 0 -48.128,48.128 l 44.032,44.032 a 34.133334,34.133334 0 0 0 48.128,0 34.133334,34.133334 0 0 0 0,-48.128 z m 81.23733,-356.01067 a 141.99467,141.99467 0 0 0 -243.02933,-102.4 L 455.47485,287.36605 a 34.876601,34.876601 0 1 0 49.49333,49.152 L 624.43485,215.00338 a 75.434666,75.434666 0 0 1 104.448,0 73.386666,73.386666 0 0 1 0,104.448 L 607.36818,438.91805 a 34.133334,34.133334 0 0 0 0,48.128 34.133334,34.133334 0 0 0 48.128,0 L 778.03485,367.92072 a 143.01867,143.01867 0 0 0 40.96,-99.66934 z" style="fill:#fff;fill-opacity:1;stroke-width:.8"/><rect style="fill:#e6e6e6;fill-opacity:1;stroke-width:2.86654" id="rect4805" width="804.708" height="104.508" x="104.602" y="855.726"/></svg>