<svg xmlns="http://www.w3.org/2000/svg" xmlns:svg="http://www.w3.org/2000/svg" id="Layer_1" x="0" y="0" enable-background="new 0 0 128 128" version="1.0" viewBox="0 0 128 128" xml:space="preserve"><g id="g1872"><path id="path958-8" fill="#ed6b21" d="m 26.966044,54.457929 0.07558,-9.999714 c 0.0063,-0.829976 0.681318,-1.494893 1.511294,-1.48862 0.829976,0.0063 1.494893,0.681318 1.48862,1.511294 l -0.07558,9.999714 c -0.0063,0.829977 -0.681318,1.494894 -1.511294,1.48862 -0.829976,-0.0063 -1.494893,-0.681317 -1.48862,-1.511294 z" style="fill:#ed6b21;fill-opacity:1;paint-order:stroke fill markers"/><path id="path958-8-1" fill="#ed6b21" d="m 36.966044,54.458378 0.07558,-9.999714 c 0.0063,-0.829976 0.681318,-1.494893 1.511294,-1.48862 0.829976,0.0063 1.494893,0.681318 1.48862,1.511294 l -0.07558,9.999714 c -0.0063,0.829977 -0.681318,1.494894 -1.511294,1.48862 -0.829976,-0.0063 -1.494893,-0.681317 -1.48862,-1.511294 z" style="fill:#ed6b21;fill-opacity:1;paint-order:stroke fill markers"/><path id="path958-8-9" fill="#ed6b21" d="m 46.966202,60.202938 0.07558,-14.999888 c 0.0063,-1.244993 0.681318,-2.242399 1.511294,-2.232988 0.829976,0.0087 1.494893,1.021998 1.48862,2.266999 l -0.07558,14.999887 c -0.0063,1.244995 -0.681318,2.242401 -1.511294,2.232988 -0.829976,-0.0087 -1.494893,-1.021997 -1.48862,-2.266998 z" style="fill:#ed6b21;fill-opacity:1;stroke-width:1.22476;paint-order:stroke fill markers"/><path id="path958-8-9-3" fill="#ed6b21" d="m 56.966044,54.458378 0.07558,-9.999714 c 0.0063,-0.829976 0.681318,-1.494893 1.511294,-1.48862 0.829976,0.0063 1.494893,0.681318 1.48862,1.511294 l -0.07558,9.999714 c -0.0063,0.829977 -0.681318,1.494894 -1.511294,1.48862 -0.829976,-0.0063 -1.494893,-0.681317 -1.48862,-1.511294 z" style="fill:#ed6b21;fill-opacity:1;paint-order:stroke fill markers"/><path id="path958-8-9-3-0" fill="#ed6b21" d="m 66.966044,54.458378 0.07558,-9.999714 c 0.0063,-0.829976 0.681318,-1.494893 1.511294,-1.48862 0.829976,0.0063 1.494893,0.681318 1.48862,1.511294 l -0.07558,9.999714 c -0.0063,0.829977 -0.681318,1.494894 -1.511294,1.48862 -0.829976,-0.0063 -1.494893,-0.681317 -1.48862,-1.511294 z" style="fill:#ed6b21;fill-opacity:1;paint-order:stroke fill markers"/><path id="path958-8-9-3-1" fill="#ed6b21" d="m 76.966202,60.202932 0.07558,-14.999881 c 0.0063,-1.244994 0.681318,-2.2424 1.511294,-2.23299 0.829976,0.0085 1.494893,1.021998 1.48862,2.266999 l -0.07558,14.999882 c -0.0063,1.244995 -0.681318,2.2424 -1.511294,2.232987 -0.829976,-0.0085 -1.494893,-1.021996 -1.48862,-2.266997 z" style="fill:#ed6b21;fill-opacity:1;stroke-width:1.22474;paint-order:stroke fill markers"/><path id="path958-8-9-3-1-4" fill="#ed6b21" d="m 86.966044,54.458378 0.07558,-9.999714 c 0.0063,-0.829976 0.681318,-1.494893 1.511294,-1.48862 0.829976,0.0063 1.494893,0.681318 1.48862,1.511294 l -0.07558,9.999714 c -0.0063,0.829977 -0.681318,1.494894 -1.511294,1.48862 -0.829976,-0.0063 -1.494893,-0.681317 -1.48862,-1.511294 z" style="fill:#ed6b21;fill-opacity:1;paint-order:stroke fill markers"/><path id="path958-8-9-3-1-4-2" fill="#ed6b21" d="m 96.966044,54.458378 0.07558,-9.999714 c 0.0063,-0.829976 0.681318,-1.494893 1.511294,-1.48862 0.829976,0.0063 1.494892,0.681318 1.488622,1.511294 l -0.07558,9.999714 c -0.0063,0.829977 -0.681318,1.494894 -1.511294,1.48862 -0.829976,-0.0063 -1.494893,-0.681317 -1.48862,-1.511294 z" style="fill:#ed6b21;fill-opacity:1;paint-order:stroke fill markers"/></g><g id="g964" transform="translate(0,34.9)"><path id="path962" fill="#fff" d="M 108.79,51.6 H 19.21 c -1.93,0 -3.5,-1.57 -3.5,-3.5 V 10.12 c 0,-1.93 1.57,-3.5 3.5,-3.5 h 89.57 c 1.93,0 3.5,1.57 3.5,3.5 V 48.1 c 0.01,1.93 -1.57,3.5 -3.49,3.5 z M 19.21,9.62 c -0.27,0 -0.5,0.23 -0.5,0.5 V 48.1 c 0,0.27 0.23,0.5 0.5,0.5 h 89.57 c 0.27,0 0.5,-0.23 0.5,-0.5 V 10.12 c 0,-0.27 -0.23,-0.5 -0.5,-0.5 z"/></g></svg>