<svg xmlns="http://www.w3.org/2000/svg" xmlns:xlink="http://www.w3.org/1999/xlink" id="Layer_1" x="0" y="0" enable-background="new 0 0 16 16" version="1.0" viewBox="0 0 16 16" xml:space="preserve"><g id="notes"><g><path fill="gray" d="M11,2l0,12l-9,0L2,2H11 M11,1H2C1.45,1,1,1.45,1,2V14c0,0.55,0.45,1,1,1H11c0.55,0,1-0.45,1-1V2 C12,1.45,11.55,1,11,1L11,1z"/></g><path fill="#ED6B21" d="M14,3L14,3c-0.55,0-1,0.45-1,1v10c0,0.55,0.45,1,1,1h0c0.55,0,1-0.45,1-1V4C15,3.45,14.55,3,14,3z"/><polygon fill="#ED6B21" points="15 4 13 4 14 1"/><g><line x1="3" x2="10" y1="4" y2="4" fill="none" stroke="gray" stroke-linecap="round" stroke-miterlimit="10"/></g><g><line x1="3" x2="10" y1="6" y2="6" fill="none" stroke="gray" stroke-linecap="round" stroke-miterlimit="10"/></g><g><line x1="3" x2="10" y1="8" y2="8" fill="none" stroke="gray" stroke-linecap="round" stroke-miterlimit="10"/></g><g><line x1="3" x2="7" y1="10" y2="10" fill="none" stroke="gray" stroke-linecap="round" stroke-miterlimit="10"/></g></g></svg>