<svg xmlns="http://www.w3.org/2000/svg" xmlns:svg="http://www.w3.org/2000/svg" id="Layer_1" x="0" y="0" version="1.1" viewBox="0 0 800 800" style="enable-background:new 0 0 800 800" xml:space="preserve"><metadata id="metadata15"/><style id="style2" type="text/css">.st0{fill:#ed6b21}</style><path style="stroke-width:.85" id="path6" d="m 501.14231,400.1595 -155.29499,116.96 v -233.75 l 155.29499,116.79 m 66.63999,0 c 0,-6.12 -2.72,-12.155 -8.15999,-16.235 L 330.12233,211.2895 c -13.43,-10.115 -32.555,-0.51 -32.555,16.235 v 345.355 c 0,16.745 19.125,26.35 32.555,16.235 l 229.49998,-172.805 c 5.44,-3.995 8.16,-10.03 8.15999,-16.15 z" class="st0"/><g id="g4" transform="matrix(0.9775,0,0,0.9775,53.547005,53.547755)"><path id="path2" d="M 597.2,701.3 H 110.6 C 53.2,701.3 6.5,654.6 6.5,597.2 V 110.6 C 6.5,53.2 53.2,6.5 110.6,6.5 h 486.6 c 57.4,0 104.1,46.7 104.1,104.1 v 486.6 c 0,57.4 -46.7,104.1 -104.1,104.1 z M 110.6,52.4 c -32,0 -58.2,26 -58.2,58.2 v 486.6 c 0,32 26,58.2 58.2,58.2 h 486.6 c 32,0 58.2,-26 58.2,-58.2 V 110.6 c 0,-32 -26,-58.2 -58.2,-58.2 z" class="st0"/></g><path style="fill:#ed6b21;fill-opacity:1;stroke-width:.674602" id="path17" d="m 150.65676,738.12999 c -12.4717,-1.39663 -26.66772,-5.94191 -37.84321,-12.11671 -17.754565,-9.80992 -33.768845,-26.68981 -42.418125,-44.71089 -5.98506,-12.4701 -8.76024,-23.35456 -9.82192,-38.5225 -0.48062,-6.8663 -0.64046,-87.42616 -0.4973,-250.61508 0.1956,-222.88026 0.29494,-240.94222 1.35676,-246.58758 4.2349,-22.51562 13.68014,-40.62012 29.20092,-55.971935 14.237945,-14.08294 31.958665,-23.42796 52.602245,-27.7398 5.87892,-1.22794 14.00696,-1.26814 256.3492,-1.26814 h 250.27778 l 7.08334,1.5615 c 21.30688,4.69708 36.90336,13.21608 51.96052,28.3815 14.67866,14.784215 23.1932,30.350375 27.76124,50.752695 l 1.56792,7.0027 v 250.9524 c 0,242.72256 -0.0418,251.15148 -1.26428,257.0238 -9.30592,44.69035 -45.18963,77.43352 -89.75567,81.90028 -9.17897,0.92003 -488.33076,0.87926 -496.55942,-0.0426 z m 502.21598,-45.64 c 19.93824,-6.17834 34.6922,-21.42494 40.00112,-41.33676 l 1.51306,-5.67491 V 399.58544 153.69258 l -1.52572,-5.7341 c -5.66288,-21.28292 -21.4158,-36.89778 -42.2051,-41.83524 -5.63964,-1.3394 -7.66026,-1.3488 -253.17948,-1.17612 l -247.49446,0.174 -4.72222,1.5953 c -18.05932,6.10094 -31.7315,19.23924 -37.4918,36.02779 -1.04762,3.05335 -2.22128,7.52472 -2.60814,9.93642 -0.47858,2.98361 -0.705,81.91877 -0.70846,246.99891 -0.004,218.14116 0.1022,243.18289 1.05916,248.25395 4.27172,22.63803 22.24346,40.86392 44.80876,45.44251 3.58848,0.7281 49.16894,0.8701 250.95238,0.7817 l 246.56746,-0.108 z"/><path style="fill:#ed6b21;fill-opacity:1;stroke-width:.674602" id="path19" d="m 300.17824,218.44362 c 2.06443,-4.13128 4.83026,-6.86894 9.40917,-9.3133 3.43647,-1.83451 12.82007,-1.79344 16.52778,0.0724 3.22403,1.6224 232.7236,174.17374 235.79013,177.281 3.35767,3.4022 4.88323,7.0012 5.23218,12.34324 0.27168,4.159 0.0718,5.32914 -1.5138,8.86232 -1.00471,2.23886 -2.78731,4.97342 -3.96129,6.07682 -4.28583,4.02812 -232.27571,175.25818 -235.54572,176.9048 -4.6586,2.34584 -12.1025,2.3876 -16.52928,0.0928 -3.87486,-2.00878 -7.80538,-5.7435 -9.67029,-9.18862 l -1.46069,-2.69842 -0.1736,-178.1462 -0.1736,-178.14618 z m 45.66908,298.67588 c 1.00351,-0.0612 154.99009,-116.48774 154.99009,-117.18534 0,-0.71184 -154.02593,-116.84804 -154.99009,-116.86318 -0.27827,-0.004 -0.50595,52.66168 -0.50595,117.03568 0,64.37402 0.22768,117.0298 0.50595,117.01284 z"/></svg>