<svg xmlns="http://www.w3.org/2000/svg" xmlns:svg="http://www.w3.org/2000/svg" id="close_window" x="0" y="0" enable-background="new 0 0 100 100" version="1.0" viewBox="0 0 100 100" xml:space="preserve"><metadata id="metadata19"/><g id="g4" transform="matrix(1.15,0,0,1.15,-7.50075,-7.5)"><path id="path2" fill="#ED6B21" d="M 80,92.83 H 20 C 12.92,92.83 7.17,87.07 7.17,79.99 V 20 C 7.17,12.92 12.93,7.17 20,7.17 h 60 c 7.08,0 12.84,5.76 12.84,12.83 V 80 C 92.83,87.08 87.08,92.83 80,92.83 Z m -60,-80 c -3.95,0 -7.17,3.21 -7.17,7.17 v 60 c 0,3.95 3.21,7.17 7.17,7.17 h 60 c 3.95,0 7.17,-3.21 7.17,-7.17 V 20 c 0,-3.95 -3.21,-7.17 -7.17,-7.17 z"/></g><g id="g8" transform="matrix(1.15,0,0,1.15,-7.50075,-7.5)"><path id="path6" fill="#ED6B21" d="m 70,75.67 c -1.45,0 -2.9,-0.55 -4.01,-1.66 l -40,-40 c -2.21,-2.21 -2.21,-5.8 0,-8.02 2.21,-2.22 5.8,-2.21 8.02,0 l 40,40 c 2.21,2.21 2.21,5.8 0,8.02 -1.11,1.11 -2.56,1.66 -4.01,1.66 z"/></g><g id="g12" transform="matrix(1.15,0,0,1.15,-7.50075,-7.5)"><path id="path10" fill="#ED6B21" d="m 30,75.67 c -1.45,0 -2.9,-0.55 -4.01,-1.66 -2.21,-2.21 -2.21,-5.8 0,-8.02 l 40,-40 c 2.21,-2.21 5.8,-2.21 8.02,0 2.21,2.21 2.21,5.8 0,8.02 l -40,40 C 32.9,75.12 31.45,75.67 30,75.67 Z"/></g></svg>