<svg xmlns="http://www.w3.org/2000/svg" xmlns:svg="http://www.w3.org/2000/svg" id="minimalize_window" x="0" y="0" enable-background="new 0 0 100 100" version="1.0" viewBox="0 0 100 100" xml:space="preserve"><metadata id="metadata15"/><g id="g4" transform="matrix(1.15,0,0,1.15,-7.50075,-7.5)"><path id="path2" fill="#ed6b21" d="M 80,92.83 H 20 C 12.92,92.83 7.17,87.07 7.17,79.99 V 20 C 7.17,12.92 12.93,7.17 20,7.17 h 60 c 7.08,0 12.84,5.76 12.84,12.83 V 80 C 92.83,87.08 87.08,92.83 80,92.83 Z m -60,-80 c -3.95,0 -7.17,3.21 -7.17,7.17 v 60 c 0,3.95 3.21,7.17 7.17,7.17 h 60 c 3.95,0 7.17,-3.21 7.17,-7.17 V 20 c 0,-3.95 -3.21,-7.17 -7.17,-7.17 z"/></g><g id="g8" transform="matrix(1.15,0,0,1.15,-7.50075,-7.5)"><path id="path6" fill="#ed6b21" d="M 70,75.67 H 30 c -3.13,0 -5.67,-2.54 -5.67,-5.67 v -5 c 0,-3.13 2.54,-5.67 5.67,-5.67 h 40 c 3.13,0 5.67,2.54 5.67,5.67 v 5 c 0,3.13 -2.54,5.67 -5.67,5.67 z"/></g></svg>