<svg xmlns="http://www.w3.org/2000/svg" xmlns:svg="http://www.w3.org/2000/svg" id="warning" width="200" height="200" x="0" y="0" enable-background="new 0 0 100 100" version="1.0" viewBox="0 0 200 200" xml:space="preserve"><metadata id="metadata19"/><g id="g4" transform="matrix(2.2,0,0,2.2,-9.9977389,-10)"><path id="path2" fill="#ed6b21" d="M 90,89.25 H 10 C 8.48,89.25 7.08,88.44 6.32,87.13 5.56,85.82 5.55,84.2 6.31,82.89 l 40,-70 c 0.76,-1.33 2.17,-2.14 3.69,-2.14 1.53,0 2.93,0.82 3.69,2.14 l 40,70 c 0.75,1.32 0.75,2.93 -0.01,4.24 -0.76,1.32 -2.16,2.12 -3.68,2.12 z M 17.33,80.75 H 82.68 L 50,23.57 Z"/></g><g id="g8" transform="matrix(2.2,0,0,2.2,-9.9977389,-10)"><path id="path6" fill="#ed6b21" d="m 50,59.25 c -2.35,0 -4.25,-1.9 -4.25,-4.25 V 40 c 0,-2.35 1.9,-4.25 4.25,-4.25 2.35,0 4.25,1.9 4.25,4.25 v 15 c 0,2.35 -1.9,4.25 -4.25,4.25 z"/></g><g id="g12" transform="matrix(2.2,0,0,2.2,-9.9977389,-10)"><circle id="circle10" cx="50" cy="70" r="5" fill="#ed6b21"/></g></svg>