<svg xmlns="http://www.w3.org/2000/svg" xmlns:svg="http://www.w3.org/2000/svg" id="close_window" x="0" y="0" enable-background="new 0 0 100 100" version="1.0" viewBox="0 0 100 100" xml:space="preserve"><metadata id="metadata19"/><g id="g4" transform="matrix(1.15,0,0,1.15,-7.50075,-7.5)"><path id="path2" fill="#ed6b21" d="M 80,92.83 H 20 C 12.92,92.83 7.17,87.07 7.17,79.99 V 20 C 7.17,12.92 12.93,7.17 20,7.17 h 60 c 7.08,0 12.84,5.76 12.84,12.83 V 80 C 92.83,87.08 87.08,92.83 80,92.83 Z m -60,-80 c -3.95,0 -7.17,3.21 -7.17,7.17 v 60 c 0,3.95 3.21,7.17 7.17,7.17 h 60 c 3.95,0 7.17,-3.21 7.17,-7.17 V 20 c 0,-3.95 -3.21,-7.17 -7.17,-7.17 z"/></g><g id="open" transform="matrix(4.6575,0,0,4.6575,10.313937,10.113631)" style="fill:#ed6b21;fill-opacity:1"><path id="path2-7" fill="gray" d="M 1.22,14 V 3 c 0,0 0,-1 1,-1 1,0 4,0 5,0 1,0 1,2 2,2 1,0 4,0 4,0 0,0 1,0 1,1 v 2 h -1 c 0,0 0,0 0,-1 0,-1 -1,-1 -1,-1 h -3.5 c -1,0 -1,-2 -2,-2 -1,0 -3.5,0 -3.5,0 -1,0 -1,1 -1,1 v 9 1 h 1 v 1 c 0,0 0,0 -1,0 -1,0 -1,-1 -1,-1 z" style="fill:#ed6b21;fill-opacity:1"/><path id="path4" fill="#ed6b21" d="M 5,6 C 4.45,6 3.86,6.43 3.68,6.95 l -2.37,7.1 C 1.14,14.57 1.45,15 2,15 h 10 c 0.55,0 1.14,-0.43 1.32,-0.95 l 2.37,-7.1 C 15.86,6.43 15.55,6 15,6 Z" style="fill:#ed6b21;fill-opacity:1"/></g></svg>