<svg xmlns="http://www.w3.org/2000/svg" xmlns:xlink="http://www.w3.org/1999/xlink" id="Layer_1" x="0" y="0" enable-background="new 0 0 128 128" version="1.0" viewBox="0 0 128 128" xml:space="preserve"><g id="paint_x5F_seams_2_"><polyline fill="none" stroke="gray" stroke-linecap="round" stroke-linejoin="round" stroke-miterlimit="10" stroke-width="3" points="120 32 64 8 8 32 8 96 64 120"/><path fill="none" stroke="gray" stroke-linecap="round" stroke-linejoin="round" stroke-miterlimit="10" stroke-width="3" d="M120,96"/><polyline fill="none" stroke="gray" stroke-linecap="round" stroke-linejoin="round" stroke-miterlimit="10" stroke-width="3" points="8 32 64 56 64 120"/><line x1="64" x2="120" y1="56" y2="32" fill="none" stroke="gray" stroke-linecap="round" stroke-linejoin="round" stroke-miterlimit="10" stroke-width="3"/><line x1="64" x2="120" y1="120" y2="96" fill="none" stroke="gray" stroke-linecap="round" stroke-linejoin="round" stroke-miterlimit="10" stroke-width="3"/><line x1="120" x2="120" y1="96" y2="32" fill="none" stroke="gray" stroke-linecap="round" stroke-linejoin="round" stroke-miterlimit="10" stroke-width="3"/><line x1="88.05" x2="95.96" y1="53.69" y2="50.3" fill="none" stroke="#ED6B21" stroke-linecap="round" stroke-linejoin="round" stroke-miterlimit="10" stroke-width="3"/><line x1="95.96" x2="103.99" y1="58.3" y2="54.86" fill="none" stroke="#ED6B21" stroke-linecap="round" stroke-linejoin="round" stroke-miterlimit="10" stroke-width="3"/><line x1="88.05" x2="95.96" y1="69.69" y2="66.3" fill="none" stroke="#ED6B21" stroke-linecap="round" stroke-linejoin="round" stroke-miterlimit="10" stroke-width="3"/><line x1="80.05" x2="88.05" y1="81.12" y2="77.69" fill="none" stroke="#ED6B21" stroke-linecap="round" stroke-linejoin="round" stroke-miterlimit="10" stroke-width="3"/><line x1="71.94" x2="80.05" y1="92.6" y2="89.12" fill="none" stroke="#ED6B21" stroke-linecap="round" stroke-linejoin="round" stroke-miterlimit="10" stroke-width="3"/><line x1="80.05" x2="88.05" y1="97.12" y2="93.69" fill="none" stroke="#ED6B21" stroke-linecap="round" stroke-linejoin="round" stroke-miterlimit="10" stroke-width="3"/><line x1="88.05" x2="96.13" y1="101.69" y2="98.23" fill="none" stroke="#ED6B21" stroke-linecap="round" stroke-linejoin="round" stroke-miterlimit="10" stroke-width="3"/></g></svg>