<svg xmlns="http://www.w3.org/2000/svg" xmlns:xlink="http://www.w3.org/1999/xlink" id="Layer_1" x="0" y="0" enable-background="new 0 0 16 16" version="1.0" viewBox="0 0 16 16" xml:space="preserve"><g id="skirt_x2B_brim"><g id="skirt_x2B_brim_-_box"><g><path fill="gray" d="M8,3.26L12.12,6v1.17v2.88L8,12.8l-4.12-2.74V7.17V6L8,3.26 M8,2.06L2.88,5.47v1.71v3.41L8,14l5.12-3.41 V7.17V5.47L8,2.06L8,2.06z"/></g></g><g id="skirt_x2B_brim_-_box_1_"><g><path fill="#ED6B21" d="M8,1.63l5.5,3.67v1.73v3.73L8,14.43l-5.5-3.67V7.03V5.3L8,1.63 M8,1.03l-6,4v2v4l6,4l6-4v-4v-2L8,1.03 L8,1.03z"/></g></g></g></svg>