<svg xmlns="http://www.w3.org/2000/svg" xmlns:xlink="http://www.w3.org/1999/xlink" id="Layer_1" x="0" y="0" enable-background="new 0 0 16 16" version="1.0" viewBox="0 0 16 16" xml:space="preserve"><g id="sla"><rect width="1" height="4" x="3" y="11" fill="gray"/><rect width="1" height="4" x="12" y="11" fill="gray"/><rect width="1" height="10" x="7.5" y="6.5" fill="gray" transform="matrix(-1.836970e-16 1 -1 -1.836970e-16 19.5 3.5)"/><rect width="1" height="10" x="7.5" y="9.5" fill="gray" transform="matrix(-1.836970e-16 1 -1 -1.836970e-16 22.5 6.5)"/><rect width="2" height="3" x="10.5" y="11.5" fill="gray" transform="matrix(-1.836970e-16 1 -1 -1.836970e-16 24.5 1.5)"/><rect width="2" height="3" x="3.5" y="11.5" fill="gray" transform="matrix(-1.836970e-16 1 -1 -1.836970e-16 17.5 8.5)"/><rect width="10" height="10" x="3" y="1" fill="#ED6B21"/></g></svg>