<svg xmlns="http://www.w3.org/2000/svg" xmlns:svg="http://www.w3.org/2000/svg" id="svg6" width="16" height="16" version="1.1" viewBox="0 0 16 16" xml:space="preserve"><path id="path181" d="m 2.5194163,0.0390625 c -0.2799997,0 -0.5,0.22000028 -0.5,0.5 v 1 c 0,0.7199993 0.4507818,1.5687504 1.0507812,1.96875 L 4.4393382,4.4199219 5.1366038,3.6816406 3.6287913,2.6777344 C 3.3087916,2.4677346 3.0194163,1.9190621 3.0194163,1.5390625 v -1 c 0,-0.27999972 -0.2200003,-0.5 -0.5,-0.5 z m 11.9999997,0 c -0.28,0 -0.5,0.22000028 -0.5,0.5 v 1 c 0,0.3799996 -0.28961,0.9286721 -0.599609,1.1386719 l -4.3398438,2.890625 c -0.2899997,0.1899998 -0.8213284,0.1899998 -1.1113281,0 L 6.8260569,4.8066406 6.1287913,5.5449219 l 1.28125,0.8535156 c 0.3099997,0.2099998 0.7093754,0.3105469 1.109375,0.3105469 0.3999996,0 0.7993753,-0.1005471 1.109375,-0.3105469 l 4.3398437,-2.890625 c 0.599999,-0.3999996 1.050781,-1.2487507 1.050781,-1.96875 v -1 c 0,-0.27999972 -0.22,-0.5 -0.5,-0.5 z" style="fill:gray;fill-opacity:1"/><circle style="fill:#ed6b21;fill-opacity:1;stroke-width:.0999999;stroke-linejoin:round;stop-color:#000" id="path891-6-7" cx="7.248" cy="2.895" r="1.25"/><rect style="fill:#999;fill-opacity:1;stroke-width:.1;stroke-linejoin:round;stop-color:#000" id="rect1147" width="1" height="1" x="15" y="15"/><rect style="fill:#999;fill-opacity:1;stroke-width:.1;stroke-linejoin:round;stop-color:#000" id="rect1149" width="1" height="1" x="0" y="15"/><rect style="fill:#999;fill-opacity:1;stroke-width:.1;stroke-linejoin:round;stop-color:#000" id="rect1151" width="1" height="1" x="1.5" y="14"/><rect style="fill:#999;fill-opacity:1;stroke-width:.1;stroke-linejoin:round;stop-color:#000" id="rect1153" width="1" height="1" x="2" y="13"/><rect style="fill:#999;fill-opacity:1;stroke-width:.1;stroke-linejoin:round;stop-color:#000" id="rect1155" width="1" height="1" x="2" y="11"/><rect style="fill:#999;fill-opacity:1;stroke-width:.1;stroke-linejoin:round;stop-color:#000" id="rect1157" width="1" height="1" x="2" y="9"/><rect style="fill:#999;fill-opacity:1;stroke-width:.1;stroke-linejoin:round;stop-color:#000" id="rect1165" width="1" height="1" x="3.5" y="14"/><rect style="fill:#999;fill-opacity:1;stroke-width:.1;stroke-linejoin:round;stop-color:#000" id="rect1167" width="1" height="1" x="5.5" y="14"/><rect style="fill:#999;fill-opacity:1;stroke-width:.1;stroke-linejoin:round;stop-color:#000" id="rect1169" width="1" height="1" x="7.5" y="14"/><rect style="fill:#999;fill-opacity:1;stroke-width:.1;stroke-linejoin:round;stop-color:#000" id="rect1171" width="1" height="1" x="9.5" y="14"/><rect style="fill:#999;fill-opacity:1;stroke-width:.1;stroke-linejoin:round;stop-color:#000" id="rect1173" width="1" height="1" x="11.5" y="14"/><rect style="fill:#999;fill-opacity:1;stroke-width:.1;stroke-linejoin:round;stop-color:#000" id="rect1175" width="1" height="1" x="13.5" y="14"/><rect style="fill:#999;fill-opacity:1;stroke-width:.1;stroke-linejoin:round;stop-color:#000" id="rect1177" width="1" height="1" x="12" y="13"/><rect style="fill:#999;fill-opacity:1;stroke-width:.1;stroke-linejoin:round;stop-color:#000" id="rect1179" width="1" height="1" x="12" y="11"/><rect style="fill:#999;fill-opacity:1;stroke-width:.1;stroke-linejoin:round;stop-color:#000" id="rect1181" width="1" height="1" x="12" y="9"/><rect style="fill:#999;fill-opacity:1;stroke-width:.1;stroke-linejoin:round;stop-color:#000" id="rect1183" width="1" height="1" x="12" y="7"/><rect style="fill:#999;fill-opacity:1;stroke-width:.1;stroke-linejoin:round;stop-color:#000" id="rect1185" width="1" height="1" x="8" y="13"/><rect style="fill:#999;fill-opacity:1;stroke-width:.1;stroke-linejoin:round;stop-color:#000" id="rect1187" width="1" height="1" x="8" y="11"/><rect style="fill:#999;fill-opacity:1;stroke-width:.1;stroke-linejoin:round;stop-color:#000" id="rect1189" width="1" height="1" x="8" y="9"/><rect style="fill:#999;fill-opacity:1;stroke-width:.1;stroke-linejoin:round;stop-color:#000" id="rect1193" width="1" height="1" x="14.993" y="-.715" transform="rotate(45)"/><rect style="fill:#999;fill-opacity:1;stroke-width:.1;stroke-linejoin:round;stop-color:#000" id="rect1195" width="1" height="1" x="15.12" y="1.047" transform="rotate(45)"/><rect style="fill:#999;fill-opacity:1;stroke-width:.1;stroke-linejoin:round;stop-color:#000" id="rect1195-8" width="1" height="1" x="6.79" y="2.616" transform="rotate(45)"/><rect style="fill:#999;fill-opacity:1;stroke-width:.1;stroke-linejoin:round;stop-color:#000" id="rect1219" width="1" height="1" x="6.727" y=".6" transform="rotate(45)"/><rect style="fill:#999;fill-opacity:1;stroke-width:.1;stroke-linejoin:round;stop-color:#000" id="rect1221" width="1" height="1" x="6.673" y="-1.517" transform="rotate(45)"/><circle style="fill:#ed6b21;fill-opacity:1;stroke-width:.0999999;stroke-linejoin:round;stop-color:#000" id="path891" cx="8.454" cy="7.968" r="1.25"/><circle style="fill:#ed6b21;fill-opacity:1;stroke-width:.0999999;stroke-linejoin:round;stop-color:#000" id="path891-6" cx="11.844" cy="6.452" r="1.25"/></svg>