<svg xmlns="http://www.w3.org/2000/svg" xmlns:svg="http://www.w3.org/2000/svg" id="svg886" width="210.5mm" height="210.5mm" version="1.1" viewBox="0 0 210.5 210.5"><metadata id="metadata883"/><g id="layer3" transform="translate(0,-86.5)" style="display:inline"><path id="path869" style="display:inline;fill:#fff;fill-opacity:1;stroke:none;stroke-width:.04216461;stroke-linecap:round;stroke-linejoin:miter;stroke-miterlimit:10;stroke-dasharray:none;stroke-opacity:1" d="m 167.32704,288.75984 v -3.83255 h 1.45715 v 7.07119 l -6.06232,-5.36476 v -1.94915 z m -9.42165,-2.52278 1.54352,2.96287 h -0.60107 l -0.76147,1.4617 h 2.12401 l 0.6004,1.1525 h 1.65752 l -3.73414,-7.16792 z m 44.62362,4.25408 v 1.50745 c 0.98166,-0.11796 1.8734,-0.62934 2.47099,-1.41702 l -1.14996,-0.94952 c -0.31636,0.44259 -0.78818,0.74942 -1.32103,0.85909 z m -40.17486,-27.16603 11.53897,-20.77294 18.70747,18.05526 -17.35981,21.92818 z m -5.69662,28.48902 1.6624,-3.19108 -0.82877,-1.59087 L 155,291.81413 Z m 22.56867,-7.05936 c 0.97028,0.11659 1.8532,0.61761 2.4509,1.39077 l -1.16155,0.93258 c -0.31614,-0.41985 -0.77457,-0.70996 -1.28935,-0.81591 z m 3.41542,0.17252 h 1.46761 v 4.19716 c 0,0.59031 0.3725,1.11637 0.92932,1.3124 v 1.50898 c -1.38222,-0.22635 -2.39693,-1.42074 -2.39693,-2.82138 z m 8.44048,6.88684 v -6.88684 h -1.43359 v 6.88684 z m 1.73019,-4.18512 c 0.35459,0 0.64204,-0.28746 0.64204,-0.64204 0,-0.35459 -0.28745,-0.64204 -0.64204,-0.64204 h -0.8869 v -1.41764 h 0.8869 c 1.13753,0 2.05968,0.92215 2.05968,2.05968 0,1.13753 -0.92215,2.05968 -2.05968,2.05968 h -0.8869 l -0.004,-1.41764 z m -30.09042,4.18512 h 1.49929 v -2.7357 l -1.49929,-1.32677 z m 33.23702,0 h 1.43359 v -6.88684 h -1.43359 z m -6.61958,-43.20436 -15.24232,-6.09042 18.63476,17.98509 11.51531,1.11097 z m -18.15413,43.20436 v -3.62964 l 2.39506,-3.2572 h 1.87519 l -2.78508,3.78762 v 3.09922 z m 0.39556,-5.55407 -0.92997,1.26472 -1.81565,-2.59749 h 1.814 z m 21.17859,-25.58701 11.46398,1.10603 -13.7034,15.36187 -15.13578,5.47973 z m 7.21757,28.12689 c 0.17089,0.85467 0.83896,1.52274 1.69364,1.69363 v 1.50644 c -1.6794,-0.19619 -3.0039,-1.52068 -3.20008,-3.20007 -0.23374,-2.00112 1.19897,-3.81283 3.20008,-4.04658 v 1.50643 c -1.16914,0.23375 -1.92739,1.37102 -1.69364,2.54015 z m -5.04526,0.93674 c 0,-0.30809 -0.0685,-0.61233 -0.20062,-0.89067 -0.35104,0.36232 -0.79749,0.61783 -1.28769,0.73699 0.0131,0.0502 0.0197,0.10183 0.0197,0.15368 0,0.33625 -0.2726,0.60885 -0.60885,0.60885 h -0.92882 v 1.4686 l 0.92882,-10e-6 c 1.14733,0 2.07744,-0.9301 2.07744,-2.07744 z m -14.38439,-0.10463 1.14995,0.94952 c -0.5976,0.78768 -1.48934,1.29906 -2.471,1.41702 v -1.50745 c 0.53286,-0.10967 1.00468,-0.4165 1.32105,-0.85909 z m -2.17951,0.86152 c -0.85468,-0.17089 -1.52275,-0.83896 -1.69364,-1.69363 -0.23376,-1.16913 0.52451,-2.3064 1.69364,-2.54015 v -1.50643 c -2.00111,0.23375 -3.43383,2.04546 -3.20007,4.04658 0.19617,1.67939 1.52067,3.00388 3.20007,3.20007 z m 9.99181,-1.36912 v -4.19716 h -1.46761 v 4.19716 c 0,0.62159 -0.41231,1.16778 -1.01011,1.3381 v 1.49533 c 1.41883,-0.19091 2.47772,-1.40182 2.47772,-2.83343 z m 14.16946,-2.86224 v -1.50744 c 0.97027,0.11659 1.85319,0.61761 2.45089,1.39077 l -1.16154,0.93258 c -0.31614,-0.41985 -0.77458,-0.70996 -1.28935,-0.81591 z"/></g><g id="layer2" transform="translate(0,-86.5)" style="display:none"><path style="fill:none;fill-opacity:1;stroke:#fff;stroke-width:.1;stroke-miterlimit:4;stroke-dasharray:none;stroke-opacity:1" id="path1596" d="M 0.68079633,77.180801 H 219.81921"/><path style="fill:none;fill-opacity:1;stroke:#fff;stroke-width:.1;stroke-miterlimit:4;stroke-dasharray:none;stroke-opacity:1" id="path1594" d="M 219.81921,77.180801 V 296.31918"/><path style="fill:none;fill-opacity:1;stroke:#fff;stroke-width:.1;stroke-miterlimit:4;stroke-dasharray:none;stroke-opacity:1" id="path1592" d="M 219.81921,296.31918 H 0.68079633"/><path style="fill:none;fill-opacity:1;stroke:#fff;stroke-width:.1;stroke-miterlimit:4;stroke-dasharray:none;stroke-opacity:1" id="rect1544" d="M 0.68079633,296.31918 V 77.180801"/><path id="path5301" d="M 9.681,296.31918 V 77.180801" style="fill:none;fill-opacity:1;stroke:#fff;stroke-width:.40000001;stroke-miterlimit:4;stroke-dasharray:none;stroke-opacity:1"/><path style="fill:none;fill-opacity:1;stroke:#fff;stroke-width:.1;stroke-miterlimit:4;stroke-dasharray:none;stroke-opacity:1" id="path5303" d="M 19.681,296.31918 V 77.180801"/><path id="path5305" d="M 29.681,296.31918 V 77.180801" style="fill:none;fill-opacity:1;stroke:#fff;stroke-width:.1;stroke-miterlimit:4;stroke-dasharray:none;stroke-opacity:1"/><path style="fill:none;fill-opacity:1;stroke:#fff;stroke-width:.1;stroke-miterlimit:4;stroke-dasharray:none;stroke-opacity:1" id="path5307" d="M 39.681,296.31918 V 77.180801"/><path id="path5309" d="M 49.681,296.31918 V 77.180801" style="fill:none;fill-opacity:1;stroke:#fff;stroke-width:.1;stroke-miterlimit:4;stroke-dasharray:none;stroke-opacity:1"/><path style="fill:none;fill-opacity:1;stroke:#fff;stroke-width:.40000001;stroke-miterlimit:4;stroke-dasharray:none;stroke-opacity:1" id="path5311" d="M 59.681,296.31918 V 77.180801"/><path id="path5313" d="M 69.681,296.31918 V 77.180801" style="fill:none;fill-opacity:1;stroke:#fff;stroke-width:.1;stroke-miterlimit:4;stroke-dasharray:none;stroke-opacity:1"/><path style="fill:none;fill-opacity:1;stroke:#fff;stroke-width:.1;stroke-miterlimit:4;stroke-dasharray:none;stroke-opacity:1" id="path5315" d="M 79.681,296.31918 V 77.180801"/><path id="path5317" d="M 89.681,296.31918 V 77.180801" style="fill:none;fill-opacity:1;stroke:#fff;stroke-width:.1;stroke-miterlimit:4;stroke-dasharray:none;stroke-opacity:1"/><path style="fill:none;fill-opacity:1;stroke:#fff;stroke-width:.1;stroke-miterlimit:4;stroke-dasharray:none;stroke-opacity:1" id="path5319" d="M 99.681,296.31918 V 77.180801"/><path id="path5321" d="M 109.681,296.31918 V 77.180801" style="fill:none;fill-opacity:1;stroke:#fff;stroke-width:.40000001;stroke-miterlimit:4;stroke-dasharray:none;stroke-opacity:1"/><path style="fill:none;fill-opacity:1;stroke:#fff;stroke-width:.1;stroke-miterlimit:4;stroke-dasharray:none;stroke-opacity:1" id="path5323" d="M 119.681,296.31918 V 77.180801"/><path id="path5325" d="M 129.681,296.31918 V 77.180801" style="fill:none;fill-opacity:1;stroke:#fff;stroke-width:.1;stroke-miterlimit:4;stroke-dasharray:none;stroke-opacity:1"/><path style="fill:none;fill-opacity:1;stroke:#fff;stroke-width:.1;stroke-miterlimit:4;stroke-dasharray:none;stroke-opacity:1" id="path5327" d="M 139.681,296.31918 V 77.180801"/><path id="path5329" d="M 149.681,296.31918 V 77.180801" style="fill:none;fill-opacity:1;stroke:#fff;stroke-width:.1;stroke-miterlimit:4;stroke-dasharray:none;stroke-opacity:1"/><path style="fill:none;fill-opacity:1;stroke:#fff;stroke-width:.40000001;stroke-miterlimit:4;stroke-dasharray:none;stroke-opacity:1" id="path5331" d="M 159.681,296.31918 V 77.180801"/><path id="path5333" d="m 169.681,296.31918 v -3.0895 m 0,-10.12031 V 77.180801" style="fill:none;fill-opacity:1;stroke:#fff;stroke-width:.1;stroke-miterlimit:4;stroke-dasharray:none;stroke-opacity:1"/><path style="fill:none;fill-opacity:1;stroke:#fff;stroke-width:.1;stroke-miterlimit:4;stroke-dasharray:none;stroke-opacity:1" id="path5335" d="m 179.681,296.31918 v -2.82492 m 0,-10.18645 v -6.87917 m 0,-28.50885 V 77.180801"/><path id="path5337" d="m 189.681,296.31918 v -2.95721 m 0,-50.37005 V 77.180801" style="fill:none;fill-opacity:1;stroke:#fff;stroke-width:.1;stroke-miterlimit:4;stroke-dasharray:none;stroke-opacity:1"/><path style="fill:none;fill-opacity:1;stroke:#fff;stroke-width:.1;stroke-miterlimit:4;stroke-dasharray:none;stroke-opacity:1" id="path5339" d="m 199.681,296.31918 v -3.15564 m 0,-9.72344 v -4.69636 m 0,-30.8901 V 77.180801"/><path id="path5341" d="m 209.681,296.31918 v -2.89106 m 0,-10.25261 v -14.61822 m 0,-12.76615 V 77.180801" style="fill:none;fill-opacity:1;stroke:#fff;stroke-width:.40000001;stroke-miterlimit:4;stroke-dasharray:none;stroke-opacity:1"/><path id="path5343" d="m 219.81921,287.319 h -3.39004 m -51.52761,0 H 0.68079633" style="fill:none;fill-opacity:1;stroke:#fff;stroke-width:.40000001;stroke-miterlimit:4;stroke-dasharray:none;stroke-opacity:1"/><path style="fill:none;fill-opacity:1;stroke:#fff;stroke-width:.1;stroke-miterlimit:4;stroke-dasharray:none;stroke-opacity:1" id="path5345" d="m 219.81921,277.319 h -18.00827 m -21.36511,0 H 0.68079633"/><path id="path5347" d="m 219.81921,267.319 h -8.94629 m -36.90938,0 H 0.68079633" style="fill:none;fill-opacity:1;stroke:#fff;stroke-width:.1;stroke-miterlimit:4;stroke-dasharray:none;stroke-opacity:1"/><path style="fill:none;fill-opacity:1;stroke:#fff;stroke-width:.1;stroke-miterlimit:4;stroke-dasharray:none;stroke-opacity:1" id="path5349" d="m 219.81921,257.319 h -8.74786 m -36.90937,0 H 0.68079633"/><path id="path5351" d="m 219.81921,247.319 h -21.44786 m -18.12395,0 H 0.68079633" style="fill:none;fill-opacity:1;stroke:#fff;stroke-width:.1;stroke-miterlimit:4;stroke-dasharray:none;stroke-opacity:1"/><path style="fill:none;fill-opacity:1;stroke:#fff;stroke-width:.40000001;stroke-miterlimit:4;stroke-dasharray:none;stroke-opacity:1" id="path5353" d="M 219.81921,237.319 H 0.68079633"/><path id="path5355" d="M 219.81921,227.319 H 0.68079633" style="fill:none;fill-opacity:1;stroke:#fff;stroke-width:.1;stroke-miterlimit:4;stroke-dasharray:none;stroke-opacity:1"/><path style="fill:none;fill-opacity:1;stroke:#fff;stroke-width:.1;stroke-miterlimit:4;stroke-dasharray:none;stroke-opacity:1" id="path5357" d="M 219.81921,217.319 H 0.68079633"/><path id="path5359" d="M 219.81921,207.319 H 0.68079633" style="fill:none;fill-opacity:1;stroke:#fff;stroke-width:.1;stroke-miterlimit:4;stroke-dasharray:none;stroke-opacity:1"/><path style="fill:none;fill-opacity:1;stroke:#fff;stroke-width:.1;stroke-miterlimit:4;stroke-dasharray:none;stroke-opacity:1" id="path5361" d="M 219.81921,197.319 H 0.68079633"/><path id="path5363" d="M 219.81921,187.319 H 0.68079633" style="fill:none;fill-opacity:1;stroke:#fff;stroke-width:.40000001;stroke-miterlimit:4;stroke-dasharray:none;stroke-opacity:1"/><path style="fill:none;fill-opacity:1;stroke:#fff;stroke-width:.1;stroke-miterlimit:4;stroke-dasharray:none;stroke-opacity:1" id="path5365" d="M 219.81921,177.319 H 0.68079633"/><path id="path5367" d="M 219.81921,167.319 H 0.68079633" style="fill:none;fill-opacity:1;stroke:#fff;stroke-width:.1;stroke-miterlimit:4;stroke-dasharray:none;stroke-opacity:1"/><path style="fill:none;fill-opacity:1;stroke:#fff;stroke-width:.1;stroke-miterlimit:4;stroke-dasharray:none;stroke-opacity:1" id="path5369" d="M 219.81921,157.319 H 0.68079633"/><path id="path5371" d="M 219.81921,147.319 H 0.68079633" style="fill:none;fill-opacity:1;stroke:#fff;stroke-width:.1;stroke-miterlimit:4;stroke-dasharray:none;stroke-opacity:1"/><path style="fill:none;fill-opacity:1;stroke:#fff;stroke-width:.40000001;stroke-miterlimit:4;stroke-dasharray:none;stroke-opacity:1" id="path5373" d="M 219.81921,137.319 H 0.68079633"/><path id="path5375" d="M 219.81921,127.319 H 0.68079633" style="fill:none;fill-opacity:1;stroke:#fff;stroke-width:.1;stroke-miterlimit:4;stroke-dasharray:none;stroke-opacity:1"/><path style="fill:none;fill-opacity:1;stroke:#fff;stroke-width:.1;stroke-miterlimit:4;stroke-dasharray:none;stroke-opacity:1" id="path5377" d="M 219.81921,117.319 H 0.68079633"/><path id="path5379" d="M 219.81921,107.319 H 0.68079633" style="fill:none;fill-opacity:1;stroke:#fff;stroke-width:.1;stroke-miterlimit:4;stroke-dasharray:none;stroke-opacity:1"/><path style="fill:none;fill-opacity:1;stroke:#fff;stroke-width:.1;stroke-miterlimit:4;stroke-dasharray:none;stroke-opacity:1" id="path5381" d="M 219.81921,97.319 H 0.68079633"/><path id="path5383" d="M 219.81921,87.319 H 0.68079633" style="fill:none;fill-opacity:1;stroke:#fff;stroke-width:.40000001;stroke-miterlimit:4;stroke-dasharray:none;stroke-opacity:1"/></g><g id="layer1" style="display:inline"><path style="fill:none;stroke:#fff;stroke-width:.40000001;stroke-linecap:butt;stroke-linejoin:miter;stroke-miterlimit:4;stroke-dasharray:none;stroke-opacity:1" id="path973" d="m 0.25,205.25001 h 152.88208 m 53.78799,0 h 3.32996"/><path style="fill:none;stroke:#fff;stroke-width:.1;stroke-linecap:butt;stroke-linejoin:miter;stroke-miterlimit:4;stroke-dasharray:none;stroke-opacity:1" id="path971" d="M 145.25002,210.25 V 0.25000128"/><path style="fill:none;stroke:#fff;stroke-width:.40000001;stroke-linecap:butt;stroke-linejoin:miter;stroke-miterlimit:4;stroke-dasharray:none;stroke-opacity:1" id="path969" d="m 205.25001,210.25 v -2.79018 m 0,-10.89792 V 0.25000128"/><path style="fill:none;stroke:#fff;stroke-width:.1;stroke-linecap:butt;stroke-linejoin:miter;stroke-miterlimit:4;stroke-dasharray:none;stroke-opacity:1" id="path967" d="M 0.25,15.250006 H 210.25003"/><path style="fill:none;stroke:#fff;stroke-width:.40000001;stroke-linecap:butt;stroke-linejoin:miter;stroke-miterlimit:4;stroke-dasharray:none;stroke-opacity:1" id="path965" d="M 0.25,155.25001 H 210.25003"/><path style="fill:none;stroke:#fff;stroke-width:.40000001;stroke-linecap:butt;stroke-linejoin:miter;stroke-miterlimit:4;stroke-dasharray:none;stroke-opacity:1" id="path963" d="M 55.249995,210.25 V 0.25000128"/><path style="fill:none;stroke:#fff;stroke-width:.1;stroke-linecap:butt;stroke-linejoin:miter;stroke-miterlimit:4;stroke-dasharray:none;stroke-opacity:1" id="path961" d="m 0.25,175.25 h 160.97366 m 43.87229,0 h 5.15408"/><path style="fill:none;stroke:#fff;stroke-width:.1;stroke-linecap:butt;stroke-linejoin:miter;stroke-miterlimit:4;stroke-dasharray:none;stroke-opacity:1" id="path959" d="M 125.25003,210.25 V 0.25000128"/><path style="fill:none;stroke:#fff;stroke-width:.1;stroke-linecap:butt;stroke-linejoin:miter;stroke-miterlimit:4;stroke-dasharray:none;stroke-opacity:1" id="path957" d="M 0.25,35.250001 H 210.25003"/><path style="fill:none;stroke:#fff;stroke-width:.1;stroke-linecap:butt;stroke-linejoin:miter;stroke-miterlimit:4;stroke-dasharray:none;stroke-opacity:1" id="path955" d="m 195.25003,210.25 v -3.02405 m 0,-10.68744 0,-10.52373 m 0,-19.79114 0,-165.97363872"/><path style="fill:none;stroke:#fff;stroke-width:.1;stroke-linecap:butt;stroke-linejoin:miter;stroke-miterlimit:4;stroke-dasharray:none;stroke-opacity:1" id="path953" d="M 35.25,210.25 V 0.25000128"/><path style="fill:none;stroke:#fff;stroke-width:.40000001;stroke-linecap:butt;stroke-linejoin:miter;stroke-miterlimit:4;stroke-dasharray:none;stroke-opacity:1" id="path951" d="M 5.2500251,210.25 V 0.25000128"/><path style="fill:none;stroke:#fff;stroke-width:.1;stroke-linecap:butt;stroke-linejoin:miter;stroke-miterlimit:4;stroke-dasharray:none;stroke-opacity:1" id="path949" d="M 0.25,25.249986 H 210.25003"/><path style="fill:none;stroke:#fff;stroke-width:.40000001;stroke-linecap:butt;stroke-linejoin:miter;stroke-miterlimit:4;stroke-dasharray:none;stroke-opacity:1" id="path947" d="M 0.25,105.25 H 210.25003"/><path style="fill:none;stroke:#fff;stroke-width:.40000001;stroke-linecap:butt;stroke-linejoin:miter;stroke-miterlimit:4;stroke-dasharray:none;stroke-opacity:1" id="path945" d="M 105.25004,210.25 V 0.25000128"/><path style="fill:none;stroke:#fff;stroke-width:.40000001;stroke-linecap:butt;stroke-linejoin:miter;stroke-miterlimit:4;stroke-dasharray:none;stroke-opacity:1" id="path943" d="M 0.25,55.249996 H 210.25003"/><path style="fill:none;stroke:#fff;stroke-width:.1;stroke-linecap:butt;stroke-linejoin:miter;stroke-miterlimit:4;stroke-dasharray:none;stroke-opacity:1" id="path941" d="m 185.25001,210.25 v -3.02405 m 0,-10.73421 v -2.8531 m 0,-34.30738 V 0.25000128"/><path style="fill:none;stroke:#fff;stroke-width:.1;stroke-linecap:butt;stroke-linejoin:miter;stroke-miterlimit:4;stroke-dasharray:none;stroke-opacity:1" id="path939" d="m 175.25,210.25 v -3.11759 m 0,-51.39092 V 0.25000128"/><path style="fill:none;stroke:#fff;stroke-width:.1;stroke-linecap:butt;stroke-linejoin:miter;stroke-miterlimit:4;stroke-dasharray:none;stroke-opacity:1" id="path937" d="M 15.250005,210.25 V 0.25000128"/><path style="fill:none;stroke:#fff;stroke-width:.1;stroke-linecap:butt;stroke-linejoin:miter;stroke-miterlimit:4;stroke-dasharray:none;stroke-opacity:1" id="path935" d="M 0.25,125.25 H 210.25003"/><path style="fill:none;stroke:#fff;stroke-width:.1;stroke-linecap:butt;stroke-linejoin:miter;stroke-miterlimit:4;stroke-dasharray:none;stroke-opacity:1" id="path933" d="M 85.250005,210.25 V 0.25000128"/><path style="fill:none;stroke:#fff;stroke-width:.1;stroke-linecap:butt;stroke-linejoin:miter;stroke-miterlimit:4;stroke-dasharray:none;stroke-opacity:1" id="path931" d="M 0.25,75.249991 H 210.25003"/><path style="fill:none;stroke:#fff;stroke-width:.40000001;stroke-linecap:butt;stroke-linejoin:miter;stroke-miterlimit:4;stroke-dasharray:none;stroke-opacity:1" id="path929" d="m 155.25,210.25 v -3.02405 m 0,-7.39 V 0.25000128"/><path style="fill:none;stroke:#fff;stroke-width:.1;stroke-linecap:butt;stroke-linejoin:miter;stroke-miterlimit:4;stroke-dasharray:none;stroke-opacity:1" id="path927" d="M 0.25,0.25000128 V 210.25"/><path style="fill:none;stroke:#fff;stroke-width:.40000001;stroke-linecap:butt;stroke-linejoin:miter;stroke-miterlimit:4;stroke-dasharray:none;stroke-opacity:1" id="path925" d="M 0.25,5.2499912 H 210.25003"/><path style="fill:none;stroke:#fff;stroke-width:.1;stroke-linecap:butt;stroke-linejoin:miter;stroke-miterlimit:4;stroke-dasharray:none;stroke-opacity:1" id="path923" d="M 0.25,145.24999 H 210.25003"/><path style="fill:none;stroke:#fff;stroke-width:.1;stroke-linecap:butt;stroke-linejoin:miter;stroke-miterlimit:4;stroke-dasharray:none;stroke-opacity:1" id="path921" d="M 65.25001,210.25 V 0.25000128"/><path style="fill:none;stroke:#fff;stroke-width:.1;stroke-linecap:butt;stroke-linejoin:miter;stroke-miterlimit:4;stroke-dasharray:none;stroke-opacity:1" id="path919" d="M 0.25,95.250021 H 210.25003"/><path style="fill:none;stroke:#fff;stroke-width:.1;stroke-linecap:butt;stroke-linejoin:miter;stroke-miterlimit:4;stroke-dasharray:none;stroke-opacity:1" id="path917" d="m 165.25002,210.25 v -2.79018 m 0,-10.4302 v -13.18975 m 0,-14.82678 V 0.25000128"/><path style="fill:none;stroke:#fff;stroke-width:.1;stroke-linecap:butt;stroke-linejoin:miter;stroke-miterlimit:4;stroke-dasharray:none;stroke-opacity:1" id="path915" d="M 135.25001,210.25 V 0.25000128"/><path style="fill:none;stroke:#fff;stroke-width:.1;stroke-linecap:butt;stroke-linejoin:miter;stroke-miterlimit:4;stroke-dasharray:none;stroke-opacity:1" id="path913" d="M 210.25003,0.25000128 H 0.25"/><path style="fill:none;stroke:#fff;stroke-width:.1;stroke-linecap:butt;stroke-linejoin:miter;stroke-miterlimit:4;stroke-dasharray:none;stroke-opacity:1" id="path911" d="m 0.25,165.25002 h 166.9605 m 26.98754,0 h 16.05199"/><path style="fill:none;stroke:#fff;stroke-width:.1;stroke-linecap:butt;stroke-linejoin:miter;stroke-miterlimit:4;stroke-dasharray:none;stroke-opacity:1" id="path909" d="M 45.250015,210.25 V 0.25000128"/><path style="fill:none;stroke:#fff;stroke-width:.1;stroke-linecap:butt;stroke-linejoin:miter;stroke-miterlimit:4;stroke-dasharray:none;stroke-opacity:1" id="path907" d="M 115.25001,210.25 V 0.25000128"/><path style="fill:none;stroke:#fff;stroke-width:.1;stroke-linecap:butt;stroke-linejoin:miter;stroke-miterlimit:4;stroke-dasharray:none;stroke-opacity:1" id="path905" d="M 0.25,45.249981 H 210.25003"/><path style="fill:none;stroke:#fff;stroke-width:.1;stroke-linecap:butt;stroke-linejoin:miter;stroke-miterlimit:4;stroke-dasharray:none;stroke-opacity:1" id="path903" d="M 210.25003,210.25 V 0.25000128"/><path style="fill:none;stroke:#fff;stroke-width:.1;stroke-linecap:butt;stroke-linejoin:miter;stroke-miterlimit:4;stroke-dasharray:none;stroke-opacity:1" id="path901" d="M 25.25002,210.25 V 0.25000128"/><path style="fill:none;stroke:#fff;stroke-width:.1;stroke-linecap:butt;stroke-linejoin:miter;stroke-miterlimit:4;stroke-dasharray:none;stroke-opacity:1" id="path899" d="m 0.25,185.25002 h 166.25892 m 30.26159,0 h 13.47952"/><path style="fill:none;stroke:#fff;stroke-width:.1;stroke-linecap:butt;stroke-linejoin:miter;stroke-miterlimit:4;stroke-dasharray:none;stroke-opacity:1" id="path897" d="M 0.25,115.25002 H 210.25003"/><path style="fill:none;stroke:#fff;stroke-width:.1;stroke-linecap:butt;stroke-linejoin:miter;stroke-miterlimit:4;stroke-dasharray:none;stroke-opacity:1" id="path895" d="M 95.25002,210.25 V 0.25000128"/><path style="fill:none;stroke:#fff;stroke-width:.1;stroke-linecap:butt;stroke-linejoin:miter;stroke-miterlimit:4;stroke-dasharray:none;stroke-opacity:1" id="path893" d="M 0.25,65.250011 H 210.25003"/><path style="fill:none;stroke:#fff;stroke-width:.1;stroke-linecap:butt;stroke-linejoin:miter;stroke-miterlimit:4;stroke-dasharray:none;stroke-opacity:1" id="path891" d="M 0.25,210.25 H 210.25003"/><path style="fill:none;stroke:#fff;stroke-width:.1;stroke-linecap:butt;stroke-linejoin:miter;stroke-miterlimit:4;stroke-dasharray:none;stroke-opacity:1" id="path889" d="M 0.25,85.250006 H 210.25003"/><path style="fill:none;stroke:#fff;stroke-width:.1;stroke-linecap:butt;stroke-linejoin:miter;stroke-miterlimit:4;stroke-dasharray:none;stroke-opacity:1" id="path887" d="m 0.25,195.25 h 172.9694 m 6.46576,0 h 30.56487"/><path style="fill:none;stroke:#fff;stroke-width:.1;stroke-linecap:butt;stroke-linejoin:miter;stroke-miterlimit:4;stroke-dasharray:none;stroke-opacity:1" id="path885" d="M 0.25,135.25001 H 210.25003"/><path style="fill:none;stroke:#fff;stroke-width:.1;stroke-linecap:butt;stroke-linejoin:miter;stroke-miterlimit:4;stroke-dasharray:none;stroke-opacity:1" id="path875" d="M 75.250025,210.25 V 0.25000128"/></g></svg>